<svg width="36" height="36" viewBox="0 0 36 36" fill="none" xmlns="http://www.w3.org/2000/svg">
<path d="M31.1611 22.5431L24.518 19.5661C24.217 19.4371 23.8886 19.3853 23.5625 19.4152C23.2364 19.4452 22.9229 19.556 22.6505 19.7377C22.6228 19.7554 22.5965 19.7751 22.5717 19.7967L19.0997 22.7498C19.0637 22.7695 19.0236 22.7805 18.9826 22.7819C18.9416 22.7834 18.9008 22.7753 18.8635 22.7583C16.6317 21.6811 14.3199 19.3833 13.2385 17.1825C13.2204 17.1457 13.2111 17.1053 13.2111 17.0644C13.2111 17.0234 13.2204 16.983 13.2385 16.9462L16.2014 13.4306C16.2227 13.4046 16.2424 13.3774 16.2605 13.3491C16.4396 13.0756 16.5478 12.7617 16.5753 12.4359C16.6028 12.1101 16.5487 11.7826 16.418 11.483L13.462 4.85109C13.2942 4.4596 13.0039 4.13312 12.6347 3.92064C12.2655 3.70816 11.8374 3.62114 11.4145 3.67265C9.5769 3.91424 7.89008 4.81669 6.66933 6.21136C5.44858 7.60602 4.77741 9.39747 4.78127 11.2509C4.78127 22.2619 13.7391 31.2197 24.75 31.2197C26.6034 31.2232 28.3947 30.552 29.7893 29.3313C31.1839 28.1106 32.0864 26.4239 32.3283 24.5864C32.3797 24.1655 32.2939 23.7393 32.0836 23.3712C31.8733 23.003 31.5497 22.7126 31.1611 22.5431ZM24.75 29.5322C14.67 29.5322 6.46877 21.3309 6.46877 11.2509C6.46407 9.80802 6.98487 8.41276 7.93386 7.32582C8.88286 6.23889 10.1951 5.53465 11.6255 5.34468H11.6578C11.7145 5.34574 11.7695 5.3639 11.8157 5.39677C11.8619 5.42964 11.897 5.4757 11.9166 5.5289L14.8838 12.1537C14.9007 12.1906 14.9095 12.2306 14.9095 12.2712C14.9095 12.3117 14.9007 12.3518 14.8838 12.3886L11.9152 15.9127C11.893 15.9378 11.8728 15.9646 11.8547 15.9928C11.6689 16.2764 11.5596 16.6031 11.5371 16.9414C11.5147 17.2797 11.58 17.618 11.7267 17.9236C12.9741 20.4773 15.5475 23.0311 18.1294 24.2784C18.4368 24.4243 18.7768 24.4881 19.1161 24.4634C19.4555 24.4388 19.7827 24.3266 20.0658 24.1378C20.0925 24.1195 20.1192 24.0998 20.1445 24.0787L23.6152 21.1256C23.6494 21.1072 23.6873 21.0964 23.7261 21.094C23.765 21.0916 23.8039 21.0976 23.8402 21.1116L30.4847 24.0886C30.539 24.1117 30.5846 24.1513 30.6151 24.2018C30.6457 24.2522 30.6596 24.311 30.6549 24.3698C30.4659 25.8009 29.7623 27.1141 28.6756 28.0642C27.5889 29.0142 26.1935 29.5361 24.75 29.5322Z" fill="#F24E1E"/>
</svg>
