<svg width="388" height="275" viewBox="0 0 388 275" fill="none" xmlns="http://www.w3.org/2000/svg">
<g clip-path="url(#clip0_7065_53)">
<mask id="path-1-outside-1_7065_53" maskUnits="userSpaceOnUse" x="11" y="-2" width="837" height="135" fill="black">
<rect fill="white" x="11" y="-2" width="837" height="135"/>
<path d="M52.408 108.414C45.3348 108.414 38.9689 107.561 33.3103 105.854C27.6517 104.047 22.2457 100.935 17.0924 96.5184C15.7788 95.4142 14.7683 94.1594 14.061 92.754C13.3537 91.3487 13 89.9433 13 88.5379C13 86.2291 13.8084 84.2215 15.4251 82.5149C17.1429 80.708 19.2649 79.8046 21.791 79.8046C23.7109 79.8046 25.4287 80.4069 26.9444 81.6115C30.7841 84.7234 34.5734 87.0824 38.3121 88.6885C42.1518 90.2946 46.8505 91.0977 52.408 91.0977C56.1467 91.0977 59.5823 90.5456 62.7147 89.4414C65.8472 88.2368 68.3733 86.6808 70.2932 84.7736C72.2131 82.7659 73.173 80.5073 73.173 77.9977C73.173 74.9862 72.2636 72.4264 70.4448 70.3184C68.6259 68.2103 65.8472 66.4536 62.1085 65.0483C58.3697 63.5425 53.6206 62.3881 47.8609 61.5851C42.4044 60.782 37.6048 59.5774 33.4619 57.9713C29.319 56.2648 25.8329 54.1567 23.0036 51.6471C20.2753 49.0372 18.2039 46.0257 16.7892 42.6126C15.3746 39.0992 14.6673 35.1843 14.6673 30.8678C14.6673 24.3429 16.3345 18.7716 19.669 14.154C23.1046 9.5364 27.7022 6.02299 33.4619 3.61379C39.2215 1.2046 45.5874 0 52.5596 0C59.1276 0 65.1904 1.00383 70.7479 3.01149C76.4065 4.91878 81.0041 7.37816 84.5407 10.3897C87.471 12.6985 88.9362 15.3586 88.9362 18.3701C88.9362 20.5785 88.0773 22.5862 86.3595 24.3931C84.6418 26.2 82.6208 27.1034 80.2968 27.1034C78.7811 27.1034 77.417 26.6517 76.2044 25.7483C74.5877 24.3429 72.4152 23.0379 69.6869 21.8333C66.9587 20.5284 64.0789 19.4743 61.0475 18.6713C58.0161 17.7678 55.1868 17.3161 52.5596 17.3161C48.2146 17.3161 44.5264 17.8682 41.495 18.9724C38.5647 20.0766 36.3417 21.5824 34.826 23.4897C33.3103 25.3969 32.5524 27.6054 32.5524 30.1149C32.5524 33.1264 33.4113 35.636 35.1291 37.6437C36.9479 39.551 39.5246 41.1069 42.8592 42.3115C46.1937 43.4157 50.185 44.4195 54.8331 45.323C60.8959 46.4272 66.2008 47.7322 70.7479 49.2379C75.396 50.7437 79.2358 52.7011 82.2672 55.1103C85.2986 57.4192 87.5721 60.3805 89.0878 63.9943C90.6035 67.5077 91.3613 71.8241 91.3613 76.9437C91.3613 83.4686 89.5425 89.09 85.9048 93.808C82.2672 98.5261 77.4675 102.14 71.5058 104.649C65.6451 107.159 59.2792 108.414 52.408 108.414Z"/>
<path d="M147.697 25.146L114.958 101.638C114.25 103.545 113.139 105.051 111.623 106.155C110.208 107.159 108.642 107.661 106.924 107.661C104.196 107.661 102.175 106.908 100.862 105.402C99.548 103.897 98.8912 102.039 98.8912 99.831C98.8912 98.9276 99.0428 97.9739 99.3459 96.9701L137.087 6.92644C137.895 4.91878 139.108 3.36284 140.724 2.25862C142.442 1.15441 144.261 0.702682 146.181 0.903446C148 0.903446 149.667 1.45555 151.183 2.55977C152.799 3.5636 153.961 5.01916 154.669 6.92644L191.955 95.1632C192.46 96.4682 192.713 97.6728 192.713 98.777C192.713 101.487 191.803 103.646 189.984 105.252C188.267 106.858 186.347 107.661 184.225 107.661C182.406 107.661 180.739 107.109 179.223 106.005C177.808 104.9 176.697 103.395 175.888 101.487L143.301 26.0494L147.697 25.146ZM119.656 83.2678L127.993 65.9517H168.916L171.796 83.2678H119.656Z"/>
<path d="M266.633 1.05403C268.958 1.05403 271.029 1.95747 272.848 3.76436C274.768 5.47088 275.728 7.67931 275.728 10.3897C275.728 11.2931 275.576 12.2467 275.273 13.2506C275.071 14.154 274.667 15.0575 274.06 15.9609L239.654 64.8977L242.382 54.508V97.723C242.382 100.333 241.473 102.541 239.654 104.348C237.936 106.055 235.915 106.908 233.591 106.908C231.065 106.908 228.893 106.055 227.074 104.348C225.356 102.541 224.497 100.333 224.497 97.723V55.7126L225.71 60.531L192.971 17.3161C191.96 16.0111 191.253 14.7563 190.849 13.5517C190.445 12.3471 190.243 11.2429 190.243 10.2391C190.243 7.52874 191.304 5.32031 193.425 3.61379C195.547 1.90728 197.72 1.05403 199.943 1.05403C202.772 1.05403 205.248 2.45939 207.37 5.27012L236.471 45.1724L232.227 44.5701L259.055 5.57126C261.177 2.55977 263.703 1.05403 266.633 1.05403Z"/>
<path d="M382.938 54.2069C382.938 61.7356 381.675 68.7625 379.149 75.2874C376.623 81.8123 373.035 87.5843 368.387 92.6034C363.84 97.5222 358.384 101.387 352.018 104.198C345.753 107.008 338.882 108.414 331.404 108.414C323.927 108.414 317.056 107.008 310.791 104.198C304.526 101.387 299.07 97.5222 294.422 92.6034C289.874 87.5843 286.338 81.8123 283.812 75.2874C281.286 68.7625 280.022 61.7356 280.022 54.2069C280.022 46.6782 281.286 39.6513 283.812 33.1264C286.338 26.6015 289.874 20.8797 294.422 15.9609C299.07 10.9418 304.526 7.02682 310.791 4.21609C317.056 1.40536 323.927 0 331.404 0C338.882 0 345.753 1.40536 352.018 4.21609C358.384 7.02682 363.84 10.9418 368.387 15.9609C373.035 20.8797 376.623 26.6015 379.149 33.1264C381.675 39.6513 382.938 46.6782 382.938 54.2069ZM363.234 54.2069C363.234 47.4812 361.87 41.408 359.142 35.9874C356.413 30.4663 352.675 26.0996 347.926 22.8874C343.176 19.6751 337.669 18.069 331.404 18.069C325.14 18.069 319.633 19.6751 314.883 22.8874C310.134 26.0996 306.396 30.4161 303.667 35.8368C301.04 41.2575 299.726 47.3808 299.726 54.2069C299.726 60.9326 301.04 67.0559 303.667 72.577C306.396 77.9977 310.134 82.3142 314.883 85.5264C319.633 88.7387 325.14 90.3448 331.404 90.3448C337.669 90.3448 343.176 88.7387 347.926 85.5264C352.675 82.3142 356.413 77.9977 359.142 72.577C361.87 67.0559 363.234 60.9326 363.234 54.2069Z"/>
<path d="M405.793 69.7161C403.166 69.7161 400.943 68.8628 399.124 67.1563C397.406 65.4498 396.547 63.2916 396.547 60.6816C396.547 58.0716 397.406 55.9636 399.124 54.3575C400.943 52.651 403.166 51.7977 405.793 51.7977H432.166C434.793 51.7977 436.966 52.7011 438.684 54.508C440.502 56.2146 441.412 58.3728 441.412 60.9828C441.412 63.4923 440.502 65.6004 438.684 67.3069C436.966 68.913 434.793 69.7161 432.166 69.7161H405.793Z"/>
<path d="M505.902 1.50575C513.177 1.50575 519.644 2.86092 525.303 5.57126C530.962 8.28161 535.711 12.0962 539.551 17.0149C543.491 21.8333 546.422 27.4548 548.342 33.8793C550.362 40.2034 551.373 46.9793 551.373 54.2069C551.373 63.9441 549.605 72.828 546.068 80.8586C542.531 88.7889 537.378 95.113 530.608 99.831C523.939 104.549 515.704 106.908 505.902 106.908H469.677C467.05 106.908 464.827 106.055 463.008 104.348C461.29 102.541 460.431 100.333 460.431 97.723V10.6908C460.431 8.08084 461.29 5.92261 463.008 4.21609C464.827 2.40919 467.05 1.50575 469.677 1.50575H505.902ZM504.386 89.5919C510.752 89.5919 515.956 87.9858 519.998 84.7736C524.04 81.4609 526.97 77.1444 528.789 71.8241C530.709 66.4034 531.669 60.531 531.669 54.2069C531.669 49.4889 531.113 45.0218 530.002 40.8057C528.991 36.4893 527.374 32.7249 525.151 29.5126C522.928 26.2 520.099 23.59 516.664 21.6828C513.228 19.7755 509.136 18.8218 504.386 18.8218H477.862L479.378 17.4667V91.2483L478.468 89.5919H504.386Z"/>
<path d="M578.025 1.50575H628.801C631.428 1.50575 633.601 2.359 635.319 4.06552C637.137 5.67165 638.047 7.77969 638.047 10.3897C638.047 12.8992 637.137 14.9571 635.319 16.5632C633.601 18.069 631.428 18.8218 628.801 18.8218H586.362L587.726 16.2621V45.6241L586.513 44.4195H621.981C624.608 44.4195 626.78 45.2728 628.498 46.9793C630.317 48.5854 631.226 50.6935 631.226 53.3034C631.226 55.813 630.317 57.8709 628.498 59.477C626.78 60.9828 624.608 61.7356 621.981 61.7356H586.968L587.726 60.531V90.9471L586.513 89.5919H628.801C631.428 89.5919 633.601 90.4954 635.319 92.3023C637.137 94.0088 638.047 96.0165 638.047 98.3253C638.047 100.835 637.137 102.893 635.319 104.499C633.601 106.105 631.428 106.908 628.801 106.908H578.025C575.398 106.908 573.175 106.055 571.356 104.348C569.639 102.541 568.78 100.333 568.78 97.723V10.6908C568.78 8.08084 569.639 5.92261 571.356 4.21609C573.175 2.40919 575.398 1.50575 578.025 1.50575Z"/>
<path d="M732.97 1.2046C735.496 1.2046 737.668 2.05785 739.487 3.76436C741.407 5.3705 742.367 7.42835 742.367 9.93793C742.367 11.2429 742.064 12.5981 741.457 14.0034L704.02 101.036C703.11 103.043 701.797 104.549 700.079 105.553C698.462 106.456 696.795 106.908 695.077 106.908C693.461 106.808 691.894 106.306 690.379 105.402C688.863 104.398 687.701 102.993 686.892 101.186L649.455 13.8529C649.152 13.2506 648.95 12.6483 648.849 12.046C648.748 11.3433 648.697 10.6908 648.697 10.0885C648.697 7.17739 649.758 4.96896 651.88 3.46322C654.002 1.85709 656.023 1.05403 657.943 1.05403C661.783 1.05403 664.561 3.0115 666.279 6.92644L699.473 84.4724L694.168 84.623L724.633 6.92644C726.351 3.11188 729.13 1.2046 732.97 1.2046Z"/>
<path d="M761.727 131C759.605 131 757.837 130.297 756.423 128.892C755.109 127.587 754.452 125.931 754.452 123.923C754.452 121.915 755.109 120.209 756.423 118.803C757.837 117.498 759.605 116.846 761.727 116.846H838.725C840.847 116.846 842.564 117.498 843.878 118.803C845.293 120.209 846 121.966 846 124.074C846 126.081 845.293 127.738 843.878 129.043C842.564 130.348 840.847 131 838.725 131H761.727Z"/>
</mask>
<path d="M52.408 108.414C45.3348 108.414 38.9689 107.561 33.3103 105.854C27.6517 104.047 22.2457 100.935 17.0924 96.5184C15.7788 95.4142 14.7683 94.1594 14.061 92.754C13.3537 91.3487 13 89.9433 13 88.5379C13 86.2291 13.8084 84.2215 15.4251 82.5149C17.1429 80.708 19.2649 79.8046 21.791 79.8046C23.7109 79.8046 25.4287 80.4069 26.9444 81.6115C30.7841 84.7234 34.5734 87.0824 38.3121 88.6885C42.1518 90.2946 46.8505 91.0977 52.408 91.0977C56.1467 91.0977 59.5823 90.5456 62.7147 89.4414C65.8472 88.2368 68.3733 86.6808 70.2932 84.7736C72.2131 82.7659 73.173 80.5073 73.173 77.9977C73.173 74.9862 72.2636 72.4264 70.4448 70.3184C68.6259 68.2103 65.8472 66.4536 62.1085 65.0483C58.3697 63.5425 53.6206 62.3881 47.8609 61.5851C42.4044 60.782 37.6048 59.5774 33.4619 57.9713C29.319 56.2648 25.8329 54.1567 23.0036 51.6471C20.2753 49.0372 18.2039 46.0257 16.7892 42.6126C15.3746 39.0992 14.6673 35.1843 14.6673 30.8678C14.6673 24.3429 16.3345 18.7716 19.669 14.154C23.1046 9.5364 27.7022 6.02299 33.4619 3.61379C39.2215 1.2046 45.5874 0 52.5596 0C59.1276 0 65.1904 1.00383 70.7479 3.01149C76.4065 4.91878 81.0041 7.37816 84.5407 10.3897C87.471 12.6985 88.9362 15.3586 88.9362 18.3701C88.9362 20.5785 88.0773 22.5862 86.3595 24.3931C84.6418 26.2 82.6208 27.1034 80.2968 27.1034C78.7811 27.1034 77.417 26.6517 76.2044 25.7483C74.5877 24.3429 72.4152 23.0379 69.6869 21.8333C66.9587 20.5284 64.0789 19.4743 61.0475 18.6713C58.0161 17.7678 55.1868 17.3161 52.5596 17.3161C48.2146 17.3161 44.5264 17.8682 41.495 18.9724C38.5647 20.0766 36.3417 21.5824 34.826 23.4897C33.3103 25.3969 32.5524 27.6054 32.5524 30.1149C32.5524 33.1264 33.4113 35.636 35.1291 37.6437C36.9479 39.551 39.5246 41.1069 42.8592 42.3115C46.1937 43.4157 50.185 44.4195 54.8331 45.323C60.8959 46.4272 66.2008 47.7322 70.7479 49.2379C75.396 50.7437 79.2358 52.7011 82.2672 55.1103C85.2986 57.4192 87.5721 60.3805 89.0878 63.9943C90.6035 67.5077 91.3613 71.8241 91.3613 76.9437C91.3613 83.4686 89.5425 89.09 85.9048 93.808C82.2672 98.5261 77.4675 102.14 71.5058 104.649C65.6451 107.159 59.2792 108.414 52.408 108.414Z" fill="white"/>
<path d="M147.697 25.146L114.958 101.638C114.25 103.545 113.139 105.051 111.623 106.155C110.208 107.159 108.642 107.661 106.924 107.661C104.196 107.661 102.175 106.908 100.862 105.402C99.548 103.897 98.8912 102.039 98.8912 99.831C98.8912 98.9276 99.0428 97.9739 99.3459 96.9701L137.087 6.92644C137.895 4.91878 139.108 3.36284 140.724 2.25862C142.442 1.15441 144.261 0.702682 146.181 0.903446C148 0.903446 149.667 1.45555 151.183 2.55977C152.799 3.5636 153.961 5.01916 154.669 6.92644L191.955 95.1632C192.46 96.4682 192.713 97.6728 192.713 98.777C192.713 101.487 191.803 103.646 189.984 105.252C188.267 106.858 186.347 107.661 184.225 107.661C182.406 107.661 180.739 107.109 179.223 106.005C177.808 104.9 176.697 103.395 175.888 101.487L143.301 26.0494L147.697 25.146ZM119.656 83.2678L127.993 65.9517H168.916L171.796 83.2678H119.656Z" fill="white"/>
<path d="M266.633 1.05403C268.958 1.05403 271.029 1.95747 272.848 3.76436C274.768 5.47088 275.728 7.67931 275.728 10.3897C275.728 11.2931 275.576 12.2467 275.273 13.2506C275.071 14.154 274.667 15.0575 274.06 15.9609L239.654 64.8977L242.382 54.508V97.723C242.382 100.333 241.473 102.541 239.654 104.348C237.936 106.055 235.915 106.908 233.591 106.908C231.065 106.908 228.893 106.055 227.074 104.348C225.356 102.541 224.497 100.333 224.497 97.723V55.7126L225.71 60.531L192.971 17.3161C191.96 16.0111 191.253 14.7563 190.849 13.5517C190.445 12.3471 190.243 11.2429 190.243 10.2391C190.243 7.52874 191.304 5.32031 193.425 3.61379C195.547 1.90728 197.72 1.05403 199.943 1.05403C202.772 1.05403 205.248 2.45939 207.37 5.27012L236.471 45.1724L232.227 44.5701L259.055 5.57126C261.177 2.55977 263.703 1.05403 266.633 1.05403Z" fill="white"/>
<path d="M382.938 54.2069C382.938 61.7356 381.675 68.7625 379.149 75.2874C376.623 81.8123 373.035 87.5843 368.387 92.6034C363.84 97.5222 358.384 101.387 352.018 104.198C345.753 107.008 338.882 108.414 331.404 108.414C323.927 108.414 317.056 107.008 310.791 104.198C304.526 101.387 299.07 97.5222 294.422 92.6034C289.874 87.5843 286.338 81.8123 283.812 75.2874C281.286 68.7625 280.022 61.7356 280.022 54.2069C280.022 46.6782 281.286 39.6513 283.812 33.1264C286.338 26.6015 289.874 20.8797 294.422 15.9609C299.07 10.9418 304.526 7.02682 310.791 4.21609C317.056 1.40536 323.927 0 331.404 0C338.882 0 345.753 1.40536 352.018 4.21609C358.384 7.02682 363.84 10.9418 368.387 15.9609C373.035 20.8797 376.623 26.6015 379.149 33.1264C381.675 39.6513 382.938 46.6782 382.938 54.2069ZM363.234 54.2069C363.234 47.4812 361.87 41.408 359.142 35.9874C356.413 30.4663 352.675 26.0996 347.926 22.8874C343.176 19.6751 337.669 18.069 331.404 18.069C325.14 18.069 319.633 19.6751 314.883 22.8874C310.134 26.0996 306.396 30.4161 303.667 35.8368C301.04 41.2575 299.726 47.3808 299.726 54.2069C299.726 60.9326 301.04 67.0559 303.667 72.577C306.396 77.9977 310.134 82.3142 314.883 85.5264C319.633 88.7387 325.14 90.3448 331.404 90.3448C337.669 90.3448 343.176 88.7387 347.926 85.5264C352.675 82.3142 356.413 77.9977 359.142 72.577C361.87 67.0559 363.234 60.9326 363.234 54.2069Z" fill="#E00303"/>
<path d="M405.793 69.7161C403.166 69.7161 400.943 68.8628 399.124 67.1563C397.406 65.4498 396.547 63.2916 396.547 60.6816C396.547 58.0716 397.406 55.9636 399.124 54.3575C400.943 52.651 403.166 51.7977 405.793 51.7977H432.166C434.793 51.7977 436.966 52.7011 438.684 54.508C440.502 56.2146 441.412 58.3728 441.412 60.9828C441.412 63.4923 440.502 65.6004 438.684 67.3069C436.966 68.913 434.793 69.7161 432.166 69.7161H405.793Z" fill="white"/>
<path d="M505.902 1.50575C513.177 1.50575 519.644 2.86092 525.303 5.57126C530.962 8.28161 535.711 12.0962 539.551 17.0149C543.491 21.8333 546.422 27.4548 548.342 33.8793C550.362 40.2034 551.373 46.9793 551.373 54.2069C551.373 63.9441 549.605 72.828 546.068 80.8586C542.531 88.7889 537.378 95.113 530.608 99.831C523.939 104.549 515.704 106.908 505.902 106.908H469.677C467.05 106.908 464.827 106.055 463.008 104.348C461.29 102.541 460.431 100.333 460.431 97.723V10.6908C460.431 8.08084 461.29 5.92261 463.008 4.21609C464.827 2.40919 467.05 1.50575 469.677 1.50575H505.902ZM504.386 89.5919C510.752 89.5919 515.956 87.9858 519.998 84.7736C524.04 81.4609 526.97 77.1444 528.789 71.8241C530.709 66.4034 531.669 60.531 531.669 54.2069C531.669 49.4889 531.113 45.0218 530.002 40.8057C528.991 36.4893 527.374 32.7249 525.151 29.5126C522.928 26.2 520.099 23.59 516.664 21.6828C513.228 19.7755 509.136 18.8218 504.386 18.8218H477.862L479.378 17.4667V91.2483L478.468 89.5919H504.386Z" fill="white"/>
<path d="M578.025 1.50575H628.801C631.428 1.50575 633.601 2.359 635.319 4.06552C637.137 5.67165 638.047 7.77969 638.047 10.3897C638.047 12.8992 637.137 14.9571 635.319 16.5632C633.601 18.069 631.428 18.8218 628.801 18.8218H586.362L587.726 16.2621V45.6241L586.513 44.4195H621.981C624.608 44.4195 626.78 45.2728 628.498 46.9793C630.317 48.5854 631.226 50.6935 631.226 53.3034C631.226 55.813 630.317 57.8709 628.498 59.477C626.78 60.9828 624.608 61.7356 621.981 61.7356H586.968L587.726 60.531V90.9471L586.513 89.5919H628.801C631.428 89.5919 633.601 90.4954 635.319 92.3023C637.137 94.0088 638.047 96.0165 638.047 98.3253C638.047 100.835 637.137 102.893 635.319 104.499C633.601 106.105 631.428 106.908 628.801 106.908H578.025C575.398 106.908 573.175 106.055 571.356 104.348C569.639 102.541 568.78 100.333 568.78 97.723V10.6908C568.78 8.08084 569.639 5.92261 571.356 4.21609C573.175 2.40919 575.398 1.50575 578.025 1.50575Z" fill="white"/>
<path d="M732.97 1.2046C735.496 1.2046 737.668 2.05785 739.487 3.76436C741.407 5.3705 742.367 7.42835 742.367 9.93793C742.367 11.2429 742.064 12.5981 741.457 14.0034L704.02 101.036C703.11 103.043 701.797 104.549 700.079 105.553C698.462 106.456 696.795 106.908 695.077 106.908C693.461 106.808 691.894 106.306 690.379 105.402C688.863 104.398 687.701 102.993 686.892 101.186L649.455 13.8529C649.152 13.2506 648.95 12.6483 648.849 12.046C648.748 11.3433 648.697 10.6908 648.697 10.0885C648.697 7.17739 649.758 4.96896 651.88 3.46322C654.002 1.85709 656.023 1.05403 657.943 1.05403C661.783 1.05403 664.561 3.0115 666.279 6.92644L699.473 84.4724L694.168 84.623L724.633 6.92644C726.351 3.11188 729.13 1.2046 732.97 1.2046Z" fill="white"/>
<path d="M761.727 131C759.605 131 757.837 130.297 756.423 128.892C755.109 127.587 754.452 125.931 754.452 123.923C754.452 121.915 755.109 120.209 756.423 118.803C757.837 117.498 759.605 116.846 761.727 116.846H838.725C840.847 116.846 842.564 117.498 843.878 118.803C845.293 120.209 846 121.966 846 124.074C846 126.081 845.293 127.738 843.878 129.043C842.564 130.348 840.847 131 838.725 131H761.727Z" fill="#4848FB"/>
<path d="M52.408 108.414C45.3348 108.414 38.9689 107.561 33.3103 105.854C27.6517 104.047 22.2457 100.935 17.0924 96.5184C15.7788 95.4142 14.7683 94.1594 14.061 92.754C13.3537 91.3487 13 89.9433 13 88.5379C13 86.2291 13.8084 84.2215 15.4251 82.5149C17.1429 80.708 19.2649 79.8046 21.791 79.8046C23.7109 79.8046 25.4287 80.4069 26.9444 81.6115C30.7841 84.7234 34.5734 87.0824 38.3121 88.6885C42.1518 90.2946 46.8505 91.0977 52.408 91.0977C56.1467 91.0977 59.5823 90.5456 62.7147 89.4414C65.8472 88.2368 68.3733 86.6808 70.2932 84.7736C72.2131 82.7659 73.173 80.5073 73.173 77.9977C73.173 74.9862 72.2636 72.4264 70.4448 70.3184C68.6259 68.2103 65.8472 66.4536 62.1085 65.0483C58.3697 63.5425 53.6206 62.3881 47.8609 61.5851C42.4044 60.782 37.6048 59.5774 33.4619 57.9713C29.319 56.2648 25.8329 54.1567 23.0036 51.6471C20.2753 49.0372 18.2039 46.0257 16.7892 42.6126C15.3746 39.0992 14.6673 35.1843 14.6673 30.8678C14.6673 24.3429 16.3345 18.7716 19.669 14.154C23.1046 9.5364 27.7022 6.02299 33.4619 3.61379C39.2215 1.2046 45.5874 0 52.5596 0C59.1276 0 65.1904 1.00383 70.7479 3.01149C76.4065 4.91878 81.0041 7.37816 84.5407 10.3897C87.471 12.6985 88.9362 15.3586 88.9362 18.3701C88.9362 20.5785 88.0773 22.5862 86.3595 24.3931C84.6418 26.2 82.6208 27.1034 80.2968 27.1034C78.7811 27.1034 77.417 26.6517 76.2044 25.7483C74.5877 24.3429 72.4152 23.0379 69.6869 21.8333C66.9587 20.5284 64.0789 19.4743 61.0475 18.6713C58.0161 17.7678 55.1868 17.3161 52.5596 17.3161C48.2146 17.3161 44.5264 17.8682 41.495 18.9724C38.5647 20.0766 36.3417 21.5824 34.826 23.4897C33.3103 25.3969 32.5524 27.6054 32.5524 30.1149C32.5524 33.1264 33.4113 35.636 35.1291 37.6437C36.9479 39.551 39.5246 41.1069 42.8592 42.3115C46.1937 43.4157 50.185 44.4195 54.8331 45.323C60.8959 46.4272 66.2008 47.7322 70.7479 49.2379C75.396 50.7437 79.2358 52.7011 82.2672 55.1103C85.2986 57.4192 87.5721 60.3805 89.0878 63.9943C90.6035 67.5077 91.3613 71.8241 91.3613 76.9437C91.3613 83.4686 89.5425 89.09 85.9048 93.808C82.2672 98.5261 77.4675 102.14 71.5058 104.649C65.6451 107.159 59.2792 108.414 52.408 108.414Z" stroke="white" stroke-width="4" mask="url(#path-1-outside-1_7065_53)"/>
<path d="M147.697 25.146L114.958 101.638C114.25 103.545 113.139 105.051 111.623 106.155C110.208 107.159 108.642 107.661 106.924 107.661C104.196 107.661 102.175 106.908 100.862 105.402C99.548 103.897 98.8912 102.039 98.8912 99.831C98.8912 98.9276 99.0428 97.9739 99.3459 96.9701L137.087 6.92644C137.895 4.91878 139.108 3.36284 140.724 2.25862C142.442 1.15441 144.261 0.702682 146.181 0.903446C148 0.903446 149.667 1.45555 151.183 2.55977C152.799 3.5636 153.961 5.01916 154.669 6.92644L191.955 95.1632C192.46 96.4682 192.713 97.6728 192.713 98.777C192.713 101.487 191.803 103.646 189.984 105.252C188.267 106.858 186.347 107.661 184.225 107.661C182.406 107.661 180.739 107.109 179.223 106.005C177.808 104.9 176.697 103.395 175.888 101.487L143.301 26.0494L147.697 25.146ZM119.656 83.2678L127.993 65.9517H168.916L171.796 83.2678H119.656Z" stroke="white" stroke-width="4" mask="url(#path-1-outside-1_7065_53)"/>
<path d="M266.633 1.05403C268.958 1.05403 271.029 1.95747 272.848 3.76436C274.768 5.47088 275.728 7.67931 275.728 10.3897C275.728 11.2931 275.576 12.2467 275.273 13.2506C275.071 14.154 274.667 15.0575 274.06 15.9609L239.654 64.8977L242.382 54.508V97.723C242.382 100.333 241.473 102.541 239.654 104.348C237.936 106.055 235.915 106.908 233.591 106.908C231.065 106.908 228.893 106.055 227.074 104.348C225.356 102.541 224.497 100.333 224.497 97.723V55.7126L225.71 60.531L192.971 17.3161C191.96 16.0111 191.253 14.7563 190.849 13.5517C190.445 12.3471 190.243 11.2429 190.243 10.2391C190.243 7.52874 191.304 5.32031 193.425 3.61379C195.547 1.90728 197.72 1.05403 199.943 1.05403C202.772 1.05403 205.248 2.45939 207.37 5.27012L236.471 45.1724L232.227 44.5701L259.055 5.57126C261.177 2.55977 263.703 1.05403 266.633 1.05403Z" stroke="white" stroke-width="4" mask="url(#path-1-outside-1_7065_53)"/>
<path d="M382.938 54.2069C382.938 61.7356 381.675 68.7625 379.149 75.2874C376.623 81.8123 373.035 87.5843 368.387 92.6034C363.84 97.5222 358.384 101.387 352.018 104.198C345.753 107.008 338.882 108.414 331.404 108.414C323.927 108.414 317.056 107.008 310.791 104.198C304.526 101.387 299.07 97.5222 294.422 92.6034C289.874 87.5843 286.338 81.8123 283.812 75.2874C281.286 68.7625 280.022 61.7356 280.022 54.2069C280.022 46.6782 281.286 39.6513 283.812 33.1264C286.338 26.6015 289.874 20.8797 294.422 15.9609C299.07 10.9418 304.526 7.02682 310.791 4.21609C317.056 1.40536 323.927 0 331.404 0C338.882 0 345.753 1.40536 352.018 4.21609C358.384 7.02682 363.84 10.9418 368.387 15.9609C373.035 20.8797 376.623 26.6015 379.149 33.1264C381.675 39.6513 382.938 46.6782 382.938 54.2069ZM363.234 54.2069C363.234 47.4812 361.87 41.408 359.142 35.9874C356.413 30.4663 352.675 26.0996 347.926 22.8874C343.176 19.6751 337.669 18.069 331.404 18.069C325.14 18.069 319.633 19.6751 314.883 22.8874C310.134 26.0996 306.396 30.4161 303.667 35.8368C301.04 41.2575 299.726 47.3808 299.726 54.2069C299.726 60.9326 301.04 67.0559 303.667 72.577C306.396 77.9977 310.134 82.3142 314.883 85.5264C319.633 88.7387 325.14 90.3448 331.404 90.3448C337.669 90.3448 343.176 88.7387 347.926 85.5264C352.675 82.3142 356.413 77.9977 359.142 72.577C361.87 67.0559 363.234 60.9326 363.234 54.2069Z" stroke="white" stroke-width="4" mask="url(#path-1-outside-1_7065_53)"/>
<path d="M405.793 69.7161C403.166 69.7161 400.943 68.8628 399.124 67.1563C397.406 65.4498 396.547 63.2916 396.547 60.6816C396.547 58.0716 397.406 55.9636 399.124 54.3575C400.943 52.651 403.166 51.7977 405.793 51.7977H432.166C434.793 51.7977 436.966 52.7011 438.684 54.508C440.502 56.2146 441.412 58.3728 441.412 60.9828C441.412 63.4923 440.502 65.6004 438.684 67.3069C436.966 68.913 434.793 69.7161 432.166 69.7161H405.793Z" stroke="white" stroke-width="4" mask="url(#path-1-outside-1_7065_53)"/>
<path d="M505.902 1.50575C513.177 1.50575 519.644 2.86092 525.303 5.57126C530.962 8.28161 535.711 12.0962 539.551 17.0149C543.491 21.8333 546.422 27.4548 548.342 33.8793C550.362 40.2034 551.373 46.9793 551.373 54.2069C551.373 63.9441 549.605 72.828 546.068 80.8586C542.531 88.7889 537.378 95.113 530.608 99.831C523.939 104.549 515.704 106.908 505.902 106.908H469.677C467.05 106.908 464.827 106.055 463.008 104.348C461.29 102.541 460.431 100.333 460.431 97.723V10.6908C460.431 8.08084 461.29 5.92261 463.008 4.21609C464.827 2.40919 467.05 1.50575 469.677 1.50575H505.902ZM504.386 89.5919C510.752 89.5919 515.956 87.9858 519.998 84.7736C524.04 81.4609 526.97 77.1444 528.789 71.8241C530.709 66.4034 531.669 60.531 531.669 54.2069C531.669 49.4889 531.113 45.0218 530.002 40.8057C528.991 36.4893 527.374 32.7249 525.151 29.5126C522.928 26.2 520.099 23.59 516.664 21.6828C513.228 19.7755 509.136 18.8218 504.386 18.8218H477.862L479.378 17.4667V91.2483L478.468 89.5919H504.386Z" stroke="white" stroke-width="4" mask="url(#path-1-outside-1_7065_53)"/>
<path d="M578.025 1.50575H628.801C631.428 1.50575 633.601 2.359 635.319 4.06552C637.137 5.67165 638.047 7.77969 638.047 10.3897C638.047 12.8992 637.137 14.9571 635.319 16.5632C633.601 18.069 631.428 18.8218 628.801 18.8218H586.362L587.726 16.2621V45.6241L586.513 44.4195H621.981C624.608 44.4195 626.78 45.2728 628.498 46.9793C630.317 48.5854 631.226 50.6935 631.226 53.3034C631.226 55.813 630.317 57.8709 628.498 59.477C626.78 60.9828 624.608 61.7356 621.981 61.7356H586.968L587.726 60.531V90.9471L586.513 89.5919H628.801C631.428 89.5919 633.601 90.4954 635.319 92.3023C637.137 94.0088 638.047 96.0165 638.047 98.3253C638.047 100.835 637.137 102.893 635.319 104.499C633.601 106.105 631.428 106.908 628.801 106.908H578.025C575.398 106.908 573.175 106.055 571.356 104.348C569.639 102.541 568.78 100.333 568.78 97.723V10.6908C568.78 8.08084 569.639 5.92261 571.356 4.21609C573.175 2.40919 575.398 1.50575 578.025 1.50575Z" stroke="white" stroke-width="4" mask="url(#path-1-outside-1_7065_53)"/>
<path d="M732.97 1.2046C735.496 1.2046 737.668 2.05785 739.487 3.76436C741.407 5.3705 742.367 7.42835 742.367 9.93793C742.367 11.2429 742.064 12.5981 741.457 14.0034L704.02 101.036C703.11 103.043 701.797 104.549 700.079 105.553C698.462 106.456 696.795 106.908 695.077 106.908C693.461 106.808 691.894 106.306 690.379 105.402C688.863 104.398 687.701 102.993 686.892 101.186L649.455 13.8529C649.152 13.2506 648.95 12.6483 648.849 12.046C648.748 11.3433 648.697 10.6908 648.697 10.0885C648.697 7.17739 649.758 4.96896 651.88 3.46322C654.002 1.85709 656.023 1.05403 657.943 1.05403C661.783 1.05403 664.561 3.0115 666.279 6.92644L699.473 84.4724L694.168 84.623L724.633 6.92644C726.351 3.11188 729.13 1.2046 732.97 1.2046Z" stroke="white" stroke-width="4" mask="url(#path-1-outside-1_7065_53)"/>
<path d="M761.727 131C759.605 131 757.837 130.297 756.423 128.892C755.109 127.587 754.452 125.931 754.452 123.923C754.452 121.915 755.109 120.209 756.423 118.803C757.837 117.498 759.605 116.846 761.727 116.846H838.725C840.847 116.846 842.564 117.498 843.878 118.803C845.293 120.209 846 121.966 846 124.074C846 126.081 845.293 127.738 843.878 129.043C842.564 130.348 840.847 131 838.725 131H761.727Z" stroke="white" stroke-width="4" mask="url(#path-1-outside-1_7065_53)"/>
</g>
<g clip-path="url(#clip1_7065_53)">
<mask id="path-2-outside-2_7065_53" maskUnits="userSpaceOnUse" x="-434" y="142" width="837" height="135" fill="black">
<rect fill="white" x="-434" y="142" width="837" height="135"/>
<path d="M-392.592 252.414C-399.665 252.414 -406.031 251.561 -411.69 249.854C-417.348 248.047 -422.754 244.935 -427.908 240.518C-429.221 239.414 -430.232 238.159 -430.939 236.754C-431.646 235.349 -432 233.943 -432 232.538C-432 230.229 -431.192 228.221 -429.575 226.515C-427.857 224.708 -425.735 223.805 -423.209 223.805C-421.289 223.805 -419.571 224.407 -418.056 225.611C-414.216 228.723 -410.427 231.082 -406.688 232.688C-402.848 234.295 -398.15 235.098 -392.592 235.098C-388.853 235.098 -385.418 234.546 -382.285 233.441C-379.153 232.237 -376.627 230.681 -374.707 228.774C-372.787 226.766 -371.827 224.507 -371.827 221.998C-371.827 218.986 -372.736 216.426 -374.555 214.318C-376.374 212.21 -379.153 210.454 -382.892 209.048C-386.63 207.543 -391.379 206.388 -397.139 205.585C-402.596 204.782 -407.395 203.577 -411.538 201.971C-415.681 200.265 -419.167 198.157 -421.996 195.647C-424.725 193.037 -426.796 190.026 -428.211 186.613C-429.625 183.099 -430.333 179.184 -430.333 174.868C-430.333 168.343 -428.665 162.772 -425.331 158.154C-421.895 153.536 -417.298 150.023 -411.538 147.614C-405.779 145.205 -399.413 144 -392.44 144C-385.872 144 -379.81 145.004 -374.252 147.011C-368.594 148.919 -363.996 151.378 -360.459 154.39C-357.529 156.698 -356.064 159.359 -356.064 162.37C-356.064 164.579 -356.923 166.586 -358.64 168.393C-360.358 170.2 -362.379 171.103 -364.703 171.103C-366.219 171.103 -367.583 170.652 -368.796 169.748C-370.412 168.343 -372.585 167.038 -375.313 165.833C-378.041 164.528 -380.921 163.474 -383.953 162.671C-386.984 161.768 -389.813 161.316 -392.44 161.316C-396.785 161.316 -400.474 161.868 -403.505 162.972C-406.435 164.077 -408.658 165.582 -410.174 167.49C-411.69 169.397 -412.448 171.605 -412.448 174.115C-412.448 177.126 -411.589 179.636 -409.871 181.644C-408.052 183.551 -405.475 185.107 -402.141 186.311C-398.806 187.416 -394.815 188.42 -390.167 189.323C-384.104 190.427 -378.799 191.732 -374.252 193.238C-369.604 194.744 -365.764 196.701 -362.733 199.11C-359.701 201.419 -357.428 204.38 -355.912 207.994C-354.397 211.508 -353.639 215.824 -353.639 220.944C-353.639 227.469 -355.458 233.09 -359.095 237.808C-362.733 242.526 -367.533 246.14 -373.494 248.649C-379.355 251.159 -385.721 252.414 -392.592 252.414Z"/>
<path d="M-297.303 169.146L-330.042 245.638C-330.75 247.545 -331.861 249.051 -333.377 250.155C-334.792 251.159 -336.358 251.661 -338.076 251.661C-340.804 251.661 -342.825 250.908 -344.138 249.402C-345.452 247.897 -346.109 246.039 -346.109 243.831C-346.109 242.928 -345.957 241.974 -345.654 240.97L-307.913 150.926C-307.105 148.919 -305.892 147.363 -304.276 146.259C-302.558 145.154 -300.739 144.703 -298.819 144.903C-297 144.903 -295.333 145.456 -293.817 146.56C-292.201 147.564 -291.039 149.019 -290.331 150.926L-253.045 239.163C-252.54 240.468 -252.287 241.673 -252.287 242.777C-252.287 245.487 -253.197 247.646 -255.016 249.252C-256.733 250.858 -258.653 251.661 -260.775 251.661C-262.594 251.661 -264.261 251.109 -265.777 250.005C-267.192 248.9 -268.303 247.395 -269.112 245.487L-301.699 170.049L-297.303 169.146ZM-325.344 227.268L-317.007 209.952H-276.084L-273.204 227.268H-325.344Z"/>
<path d="M-178.367 145.054C-176.042 145.054 -173.971 145.957 -172.152 147.764C-170.232 149.471 -169.272 151.679 -169.272 154.39C-169.272 155.293 -169.424 156.247 -169.727 157.251C-169.929 158.154 -170.333 159.057 -170.94 159.961L-205.346 208.898L-202.618 198.508V241.723C-202.618 244.333 -203.527 246.541 -205.346 248.348C-207.064 250.055 -209.085 250.908 -211.409 250.908C-213.935 250.908 -216.107 250.055 -217.926 248.348C-219.644 246.541 -220.503 244.333 -220.503 241.723V199.713L-219.29 204.531L-252.029 161.316C-253.04 160.011 -253.747 158.756 -254.151 157.552C-254.555 156.347 -254.757 155.243 -254.757 154.239C-254.757 151.529 -253.696 149.32 -251.575 147.614C-249.453 145.907 -247.28 145.054 -245.057 145.054C-242.228 145.054 -239.752 146.459 -237.63 149.27L-208.529 189.172L-212.773 188.57L-185.945 149.571C-183.823 146.56 -181.297 145.054 -178.367 145.054Z"/>
<path d="M-62.062 198.207C-62.062 205.736 -63.3251 212.762 -65.8512 219.287C-68.3774 225.812 -71.9645 231.584 -76.6126 236.603C-81.1597 241.522 -86.6162 245.387 -92.9821 248.198C-99.247 251.008 -106.118 252.414 -113.596 252.414C-121.073 252.414 -127.944 251.008 -134.209 248.198C-140.474 245.387 -145.93 241.522 -150.578 236.603C-155.126 231.584 -158.662 225.812 -161.188 219.287C-163.714 212.762 -164.978 205.736 -164.978 198.207C-164.978 190.678 -163.714 183.651 -161.188 177.126C-158.662 170.602 -155.126 164.88 -150.578 159.961C-145.93 154.942 -140.474 151.027 -134.209 148.216C-127.944 145.405 -121.073 144 -113.596 144C-106.118 144 -99.247 145.405 -92.9821 148.216C-86.6162 151.027 -81.1597 154.942 -76.6126 159.961C-71.9645 164.88 -68.3774 170.602 -65.8512 177.126C-63.3251 183.651 -62.062 190.678 -62.062 198.207ZM-81.766 198.207C-81.766 191.481 -83.1301 185.408 -85.8584 179.987C-88.5866 174.466 -92.3253 170.1 -97.0745 166.887C-101.824 163.675 -107.331 162.069 -113.596 162.069C-119.86 162.069 -125.367 163.675 -130.117 166.887C-134.866 170.1 -138.604 174.416 -141.333 179.837C-143.96 185.257 -145.274 191.381 -145.274 198.207C-145.274 204.933 -143.96 211.056 -141.333 216.577C-138.604 221.998 -134.866 226.314 -130.117 229.526C-125.367 232.739 -119.86 234.345 -113.596 234.345C-107.331 234.345 -101.824 232.739 -97.0745 229.526C-92.3253 226.314 -88.5866 221.998 -85.8584 216.577C-83.1301 211.056 -81.766 204.933 -81.766 198.207Z"/>
<path d="M-39.207 213.716C-41.8342 213.716 -44.0572 212.863 -45.876 211.156C-47.5938 209.45 -48.4527 207.292 -48.4527 204.682C-48.4527 202.072 -47.5938 199.964 -45.876 198.357C-44.0572 196.651 -41.8342 195.798 -39.207 195.798H-12.834C-10.2068 195.798 -8.03422 196.701 -6.31644 198.508C-4.4976 200.215 -3.5882 202.373 -3.5882 204.983C-3.5882 207.492 -4.4976 209.6 -6.31644 211.307C-8.03422 212.913 -10.2068 213.716 -12.834 213.716H-39.207Z"/>
<path d="M60.9022 145.506C68.1775 145.506 74.6445 146.861 80.303 149.571C85.9616 152.282 90.7108 156.096 94.5505 161.015C98.4913 165.833 101.422 171.455 103.342 177.879C105.362 184.203 106.373 190.979 106.373 198.207C106.373 207.944 104.605 216.828 101.068 224.859C97.5314 232.789 92.3781 239.113 85.608 243.831C78.9389 248.549 70.7036 250.908 60.9022 250.908H24.6771C22.0499 250.908 19.8269 250.055 18.0081 248.348C16.2903 246.541 15.4313 244.333 15.4313 241.723V154.691C15.4313 152.081 16.2903 149.923 18.0081 148.216C19.8269 146.409 22.0499 145.506 24.6771 145.506H60.9022ZM59.3865 233.592C65.7524 233.592 70.9563 231.986 74.9981 228.774C79.04 225.461 81.9703 221.144 83.7891 215.824C85.709 210.403 86.6689 204.531 86.6689 198.207C86.6689 193.489 86.1132 189.022 85.0017 184.806C83.9912 180.489 82.3744 176.725 80.1514 173.513C77.9284 170.2 75.0992 167.59 71.6636 165.683C68.228 163.775 64.1356 162.822 59.3865 162.822H32.8618L34.3775 161.467V235.248L33.4681 233.592H59.3865Z"/>
<path d="M133.025 145.506H183.801C186.428 145.506 188.601 146.359 190.319 148.066C192.137 149.672 193.047 151.78 193.047 154.39C193.047 156.899 192.137 158.957 190.319 160.563C188.601 162.069 186.428 162.822 183.801 162.822H141.362L142.726 160.262V189.624L141.513 188.42H176.981C179.608 188.42 181.78 189.273 183.498 190.979C185.317 192.585 186.226 194.693 186.226 197.303C186.226 199.813 185.317 201.871 183.498 203.477C181.78 204.983 179.608 205.736 176.981 205.736H141.968L142.726 204.531V234.947L141.513 233.592H183.801C186.428 233.592 188.601 234.495 190.319 236.302C192.137 238.009 193.047 240.016 193.047 242.325C193.047 244.835 192.137 246.893 190.319 248.499C188.601 250.105 186.428 250.908 183.801 250.908H133.025C130.398 250.908 128.175 250.055 126.356 248.348C124.639 246.541 123.78 244.333 123.78 241.723V154.691C123.78 152.081 124.639 149.923 126.356 148.216C128.175 146.409 130.398 145.506 133.025 145.506Z"/>
<path d="M287.97 145.205C290.496 145.205 292.668 146.058 294.487 147.764C296.407 149.37 297.367 151.428 297.367 153.938C297.367 155.243 297.064 156.598 296.457 158.003L259.02 245.036C258.11 247.043 256.797 248.549 255.079 249.553C253.462 250.456 251.795 250.908 250.077 250.908C248.461 250.808 246.894 250.306 245.379 249.402C243.863 248.398 242.701 246.993 241.892 245.186L204.455 157.853C204.152 157.251 203.95 156.648 203.849 156.046C203.748 155.343 203.697 154.691 203.697 154.089C203.697 151.177 204.758 148.969 206.88 147.463C209.002 145.857 211.023 145.054 212.943 145.054C216.783 145.054 219.561 147.011 221.279 150.926L254.473 228.472L249.168 228.623L279.633 150.926C281.351 147.112 284.13 145.205 287.97 145.205Z"/>
<path d="M316.727 275C314.605 275 312.837 274.297 311.423 272.892C310.109 271.587 309.452 269.931 309.452 267.923C309.452 265.915 310.109 264.209 311.423 262.803C312.837 261.498 314.605 260.846 316.727 260.846H393.725C395.847 260.846 397.564 261.498 398.878 262.803C400.293 264.209 401 265.966 401 268.074C401 270.081 400.293 271.738 398.878 273.043C397.564 274.348 395.847 275 393.725 275H316.727Z"/>
</mask>
<path d="M-392.592 252.414C-399.665 252.414 -406.031 251.561 -411.69 249.854C-417.348 248.047 -422.754 244.935 -427.908 240.518C-429.221 239.414 -430.232 238.159 -430.939 236.754C-431.646 235.349 -432 233.943 -432 232.538C-432 230.229 -431.192 228.221 -429.575 226.515C-427.857 224.708 -425.735 223.805 -423.209 223.805C-421.289 223.805 -419.571 224.407 -418.056 225.611C-414.216 228.723 -410.427 231.082 -406.688 232.688C-402.848 234.295 -398.15 235.098 -392.592 235.098C-388.853 235.098 -385.418 234.546 -382.285 233.441C-379.153 232.237 -376.627 230.681 -374.707 228.774C-372.787 226.766 -371.827 224.507 -371.827 221.998C-371.827 218.986 -372.736 216.426 -374.555 214.318C-376.374 212.21 -379.153 210.454 -382.892 209.048C-386.63 207.543 -391.379 206.388 -397.139 205.585C-402.596 204.782 -407.395 203.577 -411.538 201.971C-415.681 200.265 -419.167 198.157 -421.996 195.647C-424.725 193.037 -426.796 190.026 -428.211 186.613C-429.625 183.099 -430.333 179.184 -430.333 174.868C-430.333 168.343 -428.665 162.772 -425.331 158.154C-421.895 153.536 -417.298 150.023 -411.538 147.614C-405.779 145.205 -399.413 144 -392.44 144C-385.872 144 -379.81 145.004 -374.252 147.011C-368.594 148.919 -363.996 151.378 -360.459 154.39C-357.529 156.698 -356.064 159.359 -356.064 162.37C-356.064 164.579 -356.923 166.586 -358.64 168.393C-360.358 170.2 -362.379 171.103 -364.703 171.103C-366.219 171.103 -367.583 170.652 -368.796 169.748C-370.412 168.343 -372.585 167.038 -375.313 165.833C-378.041 164.528 -380.921 163.474 -383.953 162.671C-386.984 161.768 -389.813 161.316 -392.44 161.316C-396.785 161.316 -400.474 161.868 -403.505 162.972C-406.435 164.077 -408.658 165.582 -410.174 167.49C-411.69 169.397 -412.448 171.605 -412.448 174.115C-412.448 177.126 -411.589 179.636 -409.871 181.644C-408.052 183.551 -405.475 185.107 -402.141 186.311C-398.806 187.416 -394.815 188.42 -390.167 189.323C-384.104 190.427 -378.799 191.732 -374.252 193.238C-369.604 194.744 -365.764 196.701 -362.733 199.11C-359.701 201.419 -357.428 204.38 -355.912 207.994C-354.397 211.508 -353.639 215.824 -353.639 220.944C-353.639 227.469 -355.458 233.09 -359.095 237.808C-362.733 242.526 -367.533 246.14 -373.494 248.649C-379.355 251.159 -385.721 252.414 -392.592 252.414Z" fill="white"/>
<path d="M-297.303 169.146L-330.042 245.638C-330.75 247.545 -331.861 249.051 -333.377 250.155C-334.792 251.159 -336.358 251.661 -338.076 251.661C-340.804 251.661 -342.825 250.908 -344.138 249.402C-345.452 247.897 -346.109 246.039 -346.109 243.831C-346.109 242.928 -345.957 241.974 -345.654 240.97L-307.913 150.926C-307.105 148.919 -305.892 147.363 -304.276 146.259C-302.558 145.154 -300.739 144.703 -298.819 144.903C-297 144.903 -295.333 145.456 -293.817 146.56C-292.201 147.564 -291.039 149.019 -290.331 150.926L-253.045 239.163C-252.54 240.468 -252.287 241.673 -252.287 242.777C-252.287 245.487 -253.197 247.646 -255.016 249.252C-256.733 250.858 -258.653 251.661 -260.775 251.661C-262.594 251.661 -264.261 251.109 -265.777 250.005C-267.192 248.9 -268.303 247.395 -269.112 245.487L-301.699 170.049L-297.303 169.146ZM-325.344 227.268L-317.007 209.952H-276.084L-273.204 227.268H-325.344Z" fill="white"/>
<path d="M-178.367 145.054C-176.042 145.054 -173.971 145.957 -172.152 147.764C-170.232 149.471 -169.272 151.679 -169.272 154.39C-169.272 155.293 -169.424 156.247 -169.727 157.251C-169.929 158.154 -170.333 159.057 -170.94 159.961L-205.346 208.898L-202.618 198.508V241.723C-202.618 244.333 -203.527 246.541 -205.346 248.348C-207.064 250.055 -209.085 250.908 -211.409 250.908C-213.935 250.908 -216.107 250.055 -217.926 248.348C-219.644 246.541 -220.503 244.333 -220.503 241.723V199.713L-219.29 204.531L-252.029 161.316C-253.04 160.011 -253.747 158.756 -254.151 157.552C-254.555 156.347 -254.757 155.243 -254.757 154.239C-254.757 151.529 -253.696 149.32 -251.575 147.614C-249.453 145.907 -247.28 145.054 -245.057 145.054C-242.228 145.054 -239.752 146.459 -237.63 149.27L-208.529 189.172L-212.773 188.57L-185.945 149.571C-183.823 146.56 -181.297 145.054 -178.367 145.054Z" fill="white"/>
<path d="M-62.062 198.207C-62.062 205.736 -63.3251 212.762 -65.8512 219.287C-68.3774 225.812 -71.9645 231.584 -76.6126 236.603C-81.1597 241.522 -86.6162 245.387 -92.9821 248.198C-99.247 251.008 -106.118 252.414 -113.596 252.414C-121.073 252.414 -127.944 251.008 -134.209 248.198C-140.474 245.387 -145.93 241.522 -150.578 236.603C-155.126 231.584 -158.662 225.812 -161.188 219.287C-163.714 212.762 -164.978 205.736 -164.978 198.207C-164.978 190.678 -163.714 183.651 -161.188 177.126C-158.662 170.602 -155.126 164.88 -150.578 159.961C-145.93 154.942 -140.474 151.027 -134.209 148.216C-127.944 145.405 -121.073 144 -113.596 144C-106.118 144 -99.247 145.405 -92.9821 148.216C-86.6162 151.027 -81.1597 154.942 -76.6126 159.961C-71.9645 164.88 -68.3774 170.602 -65.8512 177.126C-63.3251 183.651 -62.062 190.678 -62.062 198.207ZM-81.766 198.207C-81.766 191.481 -83.1301 185.408 -85.8584 179.987C-88.5866 174.466 -92.3253 170.1 -97.0745 166.887C-101.824 163.675 -107.331 162.069 -113.596 162.069C-119.86 162.069 -125.367 163.675 -130.117 166.887C-134.866 170.1 -138.604 174.416 -141.333 179.837C-143.96 185.257 -145.274 191.381 -145.274 198.207C-145.274 204.933 -143.96 211.056 -141.333 216.577C-138.604 221.998 -134.866 226.314 -130.117 229.526C-125.367 232.739 -119.86 234.345 -113.596 234.345C-107.331 234.345 -101.824 232.739 -97.0745 229.526C-92.3253 226.314 -88.5866 221.998 -85.8584 216.577C-83.1301 211.056 -81.766 204.933 -81.766 198.207Z" fill="#E00303"/>
<path d="M-39.207 213.716C-41.8342 213.716 -44.0572 212.863 -45.876 211.156C-47.5938 209.45 -48.4527 207.292 -48.4527 204.682C-48.4527 202.072 -47.5938 199.964 -45.876 198.357C-44.0572 196.651 -41.8342 195.798 -39.207 195.798H-12.834C-10.2068 195.798 -8.03422 196.701 -6.31644 198.508C-4.4976 200.215 -3.5882 202.373 -3.5882 204.983C-3.5882 207.492 -4.4976 209.6 -6.31644 211.307C-8.03422 212.913 -10.2068 213.716 -12.834 213.716H-39.207Z" fill="white"/>
<path d="M60.9022 145.506C68.1775 145.506 74.6445 146.861 80.303 149.571C85.9616 152.282 90.7108 156.096 94.5505 161.015C98.4913 165.833 101.422 171.455 103.342 177.879C105.362 184.203 106.373 190.979 106.373 198.207C106.373 207.944 104.605 216.828 101.068 224.859C97.5314 232.789 92.3781 239.113 85.608 243.831C78.9389 248.549 70.7036 250.908 60.9022 250.908H24.6771C22.0499 250.908 19.8269 250.055 18.0081 248.348C16.2903 246.541 15.4313 244.333 15.4313 241.723V154.691C15.4313 152.081 16.2903 149.923 18.0081 148.216C19.8269 146.409 22.0499 145.506 24.6771 145.506H60.9022ZM59.3865 233.592C65.7524 233.592 70.9563 231.986 74.9981 228.774C79.04 225.461 81.9703 221.144 83.7891 215.824C85.709 210.403 86.6689 204.531 86.6689 198.207C86.6689 193.489 86.1132 189.022 85.0017 184.806C83.9912 180.489 82.3744 176.725 80.1514 173.513C77.9284 170.2 75.0992 167.59 71.6636 165.683C68.228 163.775 64.1356 162.822 59.3865 162.822H32.8618L34.3775 161.467V235.248L33.4681 233.592H59.3865Z" fill="white"/>
<path d="M133.025 145.506H183.801C186.428 145.506 188.601 146.359 190.319 148.066C192.137 149.672 193.047 151.78 193.047 154.39C193.047 156.899 192.137 158.957 190.319 160.563C188.601 162.069 186.428 162.822 183.801 162.822H141.362L142.726 160.262V189.624L141.513 188.42H176.981C179.608 188.42 181.78 189.273 183.498 190.979C185.317 192.585 186.226 194.693 186.226 197.303C186.226 199.813 185.317 201.871 183.498 203.477C181.78 204.983 179.608 205.736 176.981 205.736H141.968L142.726 204.531V234.947L141.513 233.592H183.801C186.428 233.592 188.601 234.495 190.319 236.302C192.137 238.009 193.047 240.016 193.047 242.325C193.047 244.835 192.137 246.893 190.319 248.499C188.601 250.105 186.428 250.908 183.801 250.908H133.025C130.398 250.908 128.175 250.055 126.356 248.348C124.639 246.541 123.78 244.333 123.78 241.723V154.691C123.78 152.081 124.639 149.923 126.356 148.216C128.175 146.409 130.398 145.506 133.025 145.506Z" fill="white"/>
<path d="M287.97 145.205C290.496 145.205 292.668 146.058 294.487 147.764C296.407 149.37 297.367 151.428 297.367 153.938C297.367 155.243 297.064 156.598 296.457 158.003L259.02 245.036C258.11 247.043 256.797 248.549 255.079 249.553C253.462 250.456 251.795 250.908 250.077 250.908C248.461 250.808 246.894 250.306 245.379 249.402C243.863 248.398 242.701 246.993 241.892 245.186L204.455 157.853C204.152 157.251 203.95 156.648 203.849 156.046C203.748 155.343 203.697 154.691 203.697 154.089C203.697 151.177 204.758 148.969 206.88 147.463C209.002 145.857 211.023 145.054 212.943 145.054C216.783 145.054 219.561 147.011 221.279 150.926L254.473 228.472L249.168 228.623L279.633 150.926C281.351 147.112 284.13 145.205 287.97 145.205Z" fill="white"/>
<path d="M316.727 275C314.605 275 312.837 274.297 311.423 272.892C310.109 271.587 309.452 269.931 309.452 267.923C309.452 265.915 310.109 264.209 311.423 262.803C312.837 261.498 314.605 260.846 316.727 260.846H393.725C395.847 260.846 397.564 261.498 398.878 262.803C400.293 264.209 401 265.966 401 268.074C401 270.081 400.293 271.738 398.878 273.043C397.564 274.348 395.847 275 393.725 275H316.727Z" fill="#4848FB"/>
<path d="M-392.592 252.414C-399.665 252.414 -406.031 251.561 -411.69 249.854C-417.348 248.047 -422.754 244.935 -427.908 240.518C-429.221 239.414 -430.232 238.159 -430.939 236.754C-431.646 235.349 -432 233.943 -432 232.538C-432 230.229 -431.192 228.221 -429.575 226.515C-427.857 224.708 -425.735 223.805 -423.209 223.805C-421.289 223.805 -419.571 224.407 -418.056 225.611C-414.216 228.723 -410.427 231.082 -406.688 232.688C-402.848 234.295 -398.15 235.098 -392.592 235.098C-388.853 235.098 -385.418 234.546 -382.285 233.441C-379.153 232.237 -376.627 230.681 -374.707 228.774C-372.787 226.766 -371.827 224.507 -371.827 221.998C-371.827 218.986 -372.736 216.426 -374.555 214.318C-376.374 212.21 -379.153 210.454 -382.892 209.048C-386.63 207.543 -391.379 206.388 -397.139 205.585C-402.596 204.782 -407.395 203.577 -411.538 201.971C-415.681 200.265 -419.167 198.157 -421.996 195.647C-424.725 193.037 -426.796 190.026 -428.211 186.613C-429.625 183.099 -430.333 179.184 -430.333 174.868C-430.333 168.343 -428.665 162.772 -425.331 158.154C-421.895 153.536 -417.298 150.023 -411.538 147.614C-405.779 145.205 -399.413 144 -392.44 144C-385.872 144 -379.81 145.004 -374.252 147.011C-368.594 148.919 -363.996 151.378 -360.459 154.39C-357.529 156.698 -356.064 159.359 -356.064 162.37C-356.064 164.579 -356.923 166.586 -358.64 168.393C-360.358 170.2 -362.379 171.103 -364.703 171.103C-366.219 171.103 -367.583 170.652 -368.796 169.748C-370.412 168.343 -372.585 167.038 -375.313 165.833C-378.041 164.528 -380.921 163.474 -383.953 162.671C-386.984 161.768 -389.813 161.316 -392.44 161.316C-396.785 161.316 -400.474 161.868 -403.505 162.972C-406.435 164.077 -408.658 165.582 -410.174 167.49C-411.69 169.397 -412.448 171.605 -412.448 174.115C-412.448 177.126 -411.589 179.636 -409.871 181.644C-408.052 183.551 -405.475 185.107 -402.141 186.311C-398.806 187.416 -394.815 188.42 -390.167 189.323C-384.104 190.427 -378.799 191.732 -374.252 193.238C-369.604 194.744 -365.764 196.701 -362.733 199.11C-359.701 201.419 -357.428 204.38 -355.912 207.994C-354.397 211.508 -353.639 215.824 -353.639 220.944C-353.639 227.469 -355.458 233.09 -359.095 237.808C-362.733 242.526 -367.533 246.14 -373.494 248.649C-379.355 251.159 -385.721 252.414 -392.592 252.414Z" stroke="white" stroke-width="4" mask="url(#path-2-outside-2_7065_53)"/>
<path d="M-297.303 169.146L-330.042 245.638C-330.75 247.545 -331.861 249.051 -333.377 250.155C-334.792 251.159 -336.358 251.661 -338.076 251.661C-340.804 251.661 -342.825 250.908 -344.138 249.402C-345.452 247.897 -346.109 246.039 -346.109 243.831C-346.109 242.928 -345.957 241.974 -345.654 240.97L-307.913 150.926C-307.105 148.919 -305.892 147.363 -304.276 146.259C-302.558 145.154 -300.739 144.703 -298.819 144.903C-297 144.903 -295.333 145.456 -293.817 146.56C-292.201 147.564 -291.039 149.019 -290.331 150.926L-253.045 239.163C-252.54 240.468 -252.287 241.673 -252.287 242.777C-252.287 245.487 -253.197 247.646 -255.016 249.252C-256.733 250.858 -258.653 251.661 -260.775 251.661C-262.594 251.661 -264.261 251.109 -265.777 250.005C-267.192 248.9 -268.303 247.395 -269.112 245.487L-301.699 170.049L-297.303 169.146ZM-325.344 227.268L-317.007 209.952H-276.084L-273.204 227.268H-325.344Z" stroke="white" stroke-width="4" mask="url(#path-2-outside-2_7065_53)"/>
<path d="M-178.367 145.054C-176.042 145.054 -173.971 145.957 -172.152 147.764C-170.232 149.471 -169.272 151.679 -169.272 154.39C-169.272 155.293 -169.424 156.247 -169.727 157.251C-169.929 158.154 -170.333 159.057 -170.94 159.961L-205.346 208.898L-202.618 198.508V241.723C-202.618 244.333 -203.527 246.541 -205.346 248.348C-207.064 250.055 -209.085 250.908 -211.409 250.908C-213.935 250.908 -216.107 250.055 -217.926 248.348C-219.644 246.541 -220.503 244.333 -220.503 241.723V199.713L-219.29 204.531L-252.029 161.316C-253.04 160.011 -253.747 158.756 -254.151 157.552C-254.555 156.347 -254.757 155.243 -254.757 154.239C-254.757 151.529 -253.696 149.32 -251.575 147.614C-249.453 145.907 -247.28 145.054 -245.057 145.054C-242.228 145.054 -239.752 146.459 -237.63 149.27L-208.529 189.172L-212.773 188.57L-185.945 149.571C-183.823 146.56 -181.297 145.054 -178.367 145.054Z" stroke="white" stroke-width="4" mask="url(#path-2-outside-2_7065_53)"/>
<path d="M-62.062 198.207C-62.062 205.736 -63.3251 212.762 -65.8512 219.287C-68.3774 225.812 -71.9645 231.584 -76.6126 236.603C-81.1597 241.522 -86.6162 245.387 -92.9821 248.198C-99.247 251.008 -106.118 252.414 -113.596 252.414C-121.073 252.414 -127.944 251.008 -134.209 248.198C-140.474 245.387 -145.93 241.522 -150.578 236.603C-155.126 231.584 -158.662 225.812 -161.188 219.287C-163.714 212.762 -164.978 205.736 -164.978 198.207C-164.978 190.678 -163.714 183.651 -161.188 177.126C-158.662 170.602 -155.126 164.88 -150.578 159.961C-145.93 154.942 -140.474 151.027 -134.209 148.216C-127.944 145.405 -121.073 144 -113.596 144C-106.118 144 -99.247 145.405 -92.9821 148.216C-86.6162 151.027 -81.1597 154.942 -76.6126 159.961C-71.9645 164.88 -68.3774 170.602 -65.8512 177.126C-63.3251 183.651 -62.062 190.678 -62.062 198.207ZM-81.766 198.207C-81.766 191.481 -83.1301 185.408 -85.8584 179.987C-88.5866 174.466 -92.3253 170.1 -97.0745 166.887C-101.824 163.675 -107.331 162.069 -113.596 162.069C-119.86 162.069 -125.367 163.675 -130.117 166.887C-134.866 170.1 -138.604 174.416 -141.333 179.837C-143.96 185.257 -145.274 191.381 -145.274 198.207C-145.274 204.933 -143.96 211.056 -141.333 216.577C-138.604 221.998 -134.866 226.314 -130.117 229.526C-125.367 232.739 -119.86 234.345 -113.596 234.345C-107.331 234.345 -101.824 232.739 -97.0745 229.526C-92.3253 226.314 -88.5866 221.998 -85.8584 216.577C-83.1301 211.056 -81.766 204.933 -81.766 198.207Z" stroke="white" stroke-width="4" mask="url(#path-2-outside-2_7065_53)"/>
<path d="M-39.207 213.716C-41.8342 213.716 -44.0572 212.863 -45.876 211.156C-47.5938 209.45 -48.4527 207.292 -48.4527 204.682C-48.4527 202.072 -47.5938 199.964 -45.876 198.357C-44.0572 196.651 -41.8342 195.798 -39.207 195.798H-12.834C-10.2068 195.798 -8.03422 196.701 -6.31644 198.508C-4.4976 200.215 -3.5882 202.373 -3.5882 204.983C-3.5882 207.492 -4.4976 209.6 -6.31644 211.307C-8.03422 212.913 -10.2068 213.716 -12.834 213.716H-39.207Z" stroke="white" stroke-width="4" mask="url(#path-2-outside-2_7065_53)"/>
<path d="M60.9022 145.506C68.1775 145.506 74.6445 146.861 80.303 149.571C85.9616 152.282 90.7108 156.096 94.5505 161.015C98.4913 165.833 101.422 171.455 103.342 177.879C105.362 184.203 106.373 190.979 106.373 198.207C106.373 207.944 104.605 216.828 101.068 224.859C97.5314 232.789 92.3781 239.113 85.608 243.831C78.9389 248.549 70.7036 250.908 60.9022 250.908H24.6771C22.0499 250.908 19.8269 250.055 18.0081 248.348C16.2903 246.541 15.4313 244.333 15.4313 241.723V154.691C15.4313 152.081 16.2903 149.923 18.0081 148.216C19.8269 146.409 22.0499 145.506 24.6771 145.506H60.9022ZM59.3865 233.592C65.7524 233.592 70.9563 231.986 74.9981 228.774C79.04 225.461 81.9703 221.144 83.7891 215.824C85.709 210.403 86.6689 204.531 86.6689 198.207C86.6689 193.489 86.1132 189.022 85.0017 184.806C83.9912 180.489 82.3744 176.725 80.1514 173.513C77.9284 170.2 75.0992 167.59 71.6636 165.683C68.228 163.775 64.1356 162.822 59.3865 162.822H32.8618L34.3775 161.467V235.248L33.4681 233.592H59.3865Z" stroke="white" stroke-width="4" mask="url(#path-2-outside-2_7065_53)"/>
<path d="M133.025 145.506H183.801C186.428 145.506 188.601 146.359 190.319 148.066C192.137 149.672 193.047 151.78 193.047 154.39C193.047 156.899 192.137 158.957 190.319 160.563C188.601 162.069 186.428 162.822 183.801 162.822H141.362L142.726 160.262V189.624L141.513 188.42H176.981C179.608 188.42 181.78 189.273 183.498 190.979C185.317 192.585 186.226 194.693 186.226 197.303C186.226 199.813 185.317 201.871 183.498 203.477C181.78 204.983 179.608 205.736 176.981 205.736H141.968L142.726 204.531V234.947L141.513 233.592H183.801C186.428 233.592 188.601 234.495 190.319 236.302C192.137 238.009 193.047 240.016 193.047 242.325C193.047 244.835 192.137 246.893 190.319 248.499C188.601 250.105 186.428 250.908 183.801 250.908H133.025C130.398 250.908 128.175 250.055 126.356 248.348C124.639 246.541 123.78 244.333 123.78 241.723V154.691C123.78 152.081 124.639 149.923 126.356 148.216C128.175 146.409 130.398 145.506 133.025 145.506Z" stroke="white" stroke-width="4" mask="url(#path-2-outside-2_7065_53)"/>
<path d="M287.97 145.205C290.496 145.205 292.668 146.058 294.487 147.764C296.407 149.37 297.367 151.428 297.367 153.938C297.367 155.243 297.064 156.598 296.457 158.003L259.02 245.036C258.11 247.043 256.797 248.549 255.079 249.553C253.462 250.456 251.795 250.908 250.077 250.908C248.461 250.808 246.894 250.306 245.379 249.402C243.863 248.398 242.701 246.993 241.892 245.186L204.455 157.853C204.152 157.251 203.95 156.648 203.849 156.046C203.748 155.343 203.697 154.691 203.697 154.089C203.697 151.177 204.758 148.969 206.88 147.463C209.002 145.857 211.023 145.054 212.943 145.054C216.783 145.054 219.561 147.011 221.279 150.926L254.473 228.472L249.168 228.623L279.633 150.926C281.351 147.112 284.13 145.205 287.97 145.205Z" stroke="white" stroke-width="4" mask="url(#path-2-outside-2_7065_53)"/>
<path d="M316.727 275C314.605 275 312.837 274.297 311.423 272.892C310.109 271.587 309.452 269.931 309.452 267.923C309.452 265.915 310.109 264.209 311.423 262.803C312.837 261.498 314.605 260.846 316.727 260.846H393.725C395.847 260.846 397.564 261.498 398.878 262.803C400.293 264.209 401 265.966 401 268.074C401 270.081 400.293 271.738 398.878 273.043C397.564 274.348 395.847 275 393.725 275H316.727Z" stroke="white" stroke-width="4" mask="url(#path-2-outside-2_7065_53)"/>
</g>
<g clip-path="url(#clip2_7065_53)">
<mask id="path-3-outside-3_7065_53" maskUnits="userSpaceOnUse" x="-434" y="114" width="837" height="135" fill="black">
<rect fill="white" x="-434" y="114" width="837" height="135"/>
<path d="M-392.592 224.414C-399.665 224.414 -406.031 223.561 -411.69 221.854C-417.348 220.047 -422.754 216.935 -427.908 212.518C-429.221 211.414 -430.232 210.159 -430.939 208.754C-431.646 207.349 -432 205.943 -432 204.538C-432 202.229 -431.192 200.221 -429.575 198.515C-427.857 196.708 -425.735 195.805 -423.209 195.805C-421.289 195.805 -419.571 196.407 -418.056 197.611C-414.216 200.723 -410.427 203.082 -406.688 204.688C-402.848 206.295 -398.15 207.098 -392.592 207.098C-388.853 207.098 -385.418 206.546 -382.285 205.441C-379.153 204.237 -376.627 202.681 -374.707 200.774C-372.787 198.766 -371.827 196.507 -371.827 193.998C-371.827 190.986 -372.736 188.426 -374.555 186.318C-376.374 184.21 -379.153 182.454 -382.892 181.048C-386.63 179.543 -391.379 178.388 -397.139 177.585C-402.596 176.782 -407.395 175.577 -411.538 173.971C-415.681 172.265 -419.167 170.157 -421.996 167.647C-424.725 165.037 -426.796 162.026 -428.211 158.613C-429.625 155.099 -430.333 151.184 -430.333 146.868C-430.333 140.343 -428.665 134.772 -425.331 130.154C-421.895 125.536 -417.298 122.023 -411.538 119.614C-405.779 117.205 -399.413 116 -392.44 116C-385.872 116 -379.81 117.004 -374.252 119.011C-368.594 120.919 -363.996 123.378 -360.459 126.39C-357.529 128.698 -356.064 131.359 -356.064 134.37C-356.064 136.579 -356.923 138.586 -358.64 140.393C-360.358 142.2 -362.379 143.103 -364.703 143.103C-366.219 143.103 -367.583 142.652 -368.796 141.748C-370.412 140.343 -372.585 139.038 -375.313 137.833C-378.041 136.528 -380.921 135.474 -383.953 134.671C-386.984 133.768 -389.813 133.316 -392.44 133.316C-396.785 133.316 -400.474 133.868 -403.505 134.972C-406.435 136.077 -408.658 137.582 -410.174 139.49C-411.69 141.397 -412.448 143.605 -412.448 146.115C-412.448 149.126 -411.589 151.636 -409.871 153.644C-408.052 155.551 -405.475 157.107 -402.141 158.311C-398.806 159.416 -394.815 160.42 -390.167 161.323C-384.104 162.427 -378.799 163.732 -374.252 165.238C-369.604 166.744 -365.764 168.701 -362.733 171.11C-359.701 173.419 -357.428 176.38 -355.912 179.994C-354.397 183.508 -353.639 187.824 -353.639 192.944C-353.639 199.469 -355.458 205.09 -359.095 209.808C-362.733 214.526 -367.533 218.14 -373.494 220.649C-379.355 223.159 -385.721 224.414 -392.592 224.414Z"/>
<path d="M-297.303 141.146L-330.042 217.638C-330.75 219.545 -331.861 221.051 -333.377 222.155C-334.792 223.159 -336.358 223.661 -338.076 223.661C-340.804 223.661 -342.825 222.908 -344.138 221.402C-345.452 219.897 -346.109 218.039 -346.109 215.831C-346.109 214.928 -345.957 213.974 -345.654 212.97L-307.913 122.926C-307.105 120.919 -305.892 119.363 -304.276 118.259C-302.558 117.154 -300.739 116.703 -298.819 116.903C-297 116.903 -295.333 117.456 -293.817 118.56C-292.201 119.564 -291.039 121.019 -290.331 122.926L-253.045 211.163C-252.54 212.468 -252.287 213.673 -252.287 214.777C-252.287 217.487 -253.197 219.646 -255.016 221.252C-256.733 222.858 -258.653 223.661 -260.775 223.661C-262.594 223.661 -264.261 223.109 -265.777 222.005C-267.192 220.9 -268.303 219.395 -269.112 217.487L-301.699 142.049L-297.303 141.146ZM-325.344 199.268L-317.007 181.952H-276.084L-273.204 199.268H-325.344Z"/>
<path d="M-178.367 117.054C-176.042 117.054 -173.971 117.957 -172.152 119.764C-170.232 121.471 -169.272 123.679 -169.272 126.39C-169.272 127.293 -169.424 128.247 -169.727 129.251C-169.929 130.154 -170.333 131.057 -170.94 131.961L-205.346 180.898L-202.618 170.508V213.723C-202.618 216.333 -203.527 218.541 -205.346 220.348C-207.064 222.055 -209.085 222.908 -211.409 222.908C-213.935 222.908 -216.107 222.055 -217.926 220.348C-219.644 218.541 -220.503 216.333 -220.503 213.723V171.713L-219.29 176.531L-252.029 133.316C-253.04 132.011 -253.747 130.756 -254.151 129.552C-254.555 128.347 -254.757 127.243 -254.757 126.239C-254.757 123.529 -253.696 121.32 -251.575 119.614C-249.453 117.907 -247.28 117.054 -245.057 117.054C-242.228 117.054 -239.752 118.459 -237.63 121.27L-208.529 161.172L-212.773 160.57L-185.945 121.571C-183.823 118.56 -181.297 117.054 -178.367 117.054Z"/>
<path d="M-62.062 170.207C-62.062 177.736 -63.3251 184.762 -65.8512 191.287C-68.3774 197.812 -71.9645 203.584 -76.6126 208.603C-81.1597 213.522 -86.6162 217.387 -92.9821 220.198C-99.247 223.008 -106.118 224.414 -113.596 224.414C-121.073 224.414 -127.944 223.008 -134.209 220.198C-140.474 217.387 -145.93 213.522 -150.578 208.603C-155.126 203.584 -158.662 197.812 -161.188 191.287C-163.714 184.762 -164.978 177.736 -164.978 170.207C-164.978 162.678 -163.714 155.651 -161.188 149.126C-158.662 142.602 -155.126 136.88 -150.578 131.961C-145.93 126.942 -140.474 123.027 -134.209 120.216C-127.944 117.405 -121.073 116 -113.596 116C-106.118 116 -99.247 117.405 -92.9821 120.216C-86.6162 123.027 -81.1597 126.942 -76.6126 131.961C-71.9645 136.88 -68.3774 142.602 -65.8512 149.126C-63.3251 155.651 -62.062 162.678 -62.062 170.207ZM-81.766 170.207C-81.766 163.481 -83.1301 157.408 -85.8584 151.987C-88.5866 146.466 -92.3253 142.1 -97.0745 138.887C-101.824 135.675 -107.331 134.069 -113.596 134.069C-119.86 134.069 -125.367 135.675 -130.117 138.887C-134.866 142.1 -138.604 146.416 -141.333 151.837C-143.96 157.257 -145.274 163.381 -145.274 170.207C-145.274 176.933 -143.96 183.056 -141.333 188.577C-138.604 193.998 -134.866 198.314 -130.117 201.526C-125.367 204.739 -119.86 206.345 -113.596 206.345C-107.331 206.345 -101.824 204.739 -97.0745 201.526C-92.3253 198.314 -88.5866 193.998 -85.8584 188.577C-83.1301 183.056 -81.766 176.933 -81.766 170.207Z"/>
<path d="M-39.207 185.716C-41.8342 185.716 -44.0572 184.863 -45.876 183.156C-47.5938 181.45 -48.4527 179.292 -48.4527 176.682C-48.4527 174.072 -47.5938 171.964 -45.876 170.357C-44.0572 168.651 -41.8342 167.798 -39.207 167.798H-12.834C-10.2068 167.798 -8.03422 168.701 -6.31644 170.508C-4.4976 172.215 -3.5882 174.373 -3.5882 176.983C-3.5882 179.492 -4.4976 181.6 -6.31644 183.307C-8.03422 184.913 -10.2068 185.716 -12.834 185.716H-39.207Z"/>
<path d="M60.9022 117.506C68.1775 117.506 74.6445 118.861 80.303 121.571C85.9616 124.282 90.7108 128.096 94.5505 133.015C98.4913 137.833 101.422 143.455 103.342 149.879C105.362 156.203 106.373 162.979 106.373 170.207C106.373 179.944 104.605 188.828 101.068 196.859C97.5314 204.789 92.3781 211.113 85.608 215.831C78.9389 220.549 70.7036 222.908 60.9022 222.908H24.6771C22.0499 222.908 19.8269 222.055 18.0081 220.348C16.2903 218.541 15.4313 216.333 15.4313 213.723V126.691C15.4313 124.081 16.2903 121.923 18.0081 120.216C19.8269 118.409 22.0499 117.506 24.6771 117.506H60.9022ZM59.3865 205.592C65.7524 205.592 70.9563 203.986 74.9981 200.774C79.04 197.461 81.9703 193.144 83.7891 187.824C85.709 182.403 86.6689 176.531 86.6689 170.207C86.6689 165.489 86.1132 161.022 85.0017 156.806C83.9912 152.489 82.3744 148.725 80.1514 145.513C77.9284 142.2 75.0992 139.59 71.6636 137.683C68.228 135.775 64.1356 134.822 59.3865 134.822H32.8618L34.3775 133.467V207.248L33.4681 205.592H59.3865Z"/>
<path d="M133.025 117.506H183.801C186.428 117.506 188.601 118.359 190.319 120.066C192.137 121.672 193.047 123.78 193.047 126.39C193.047 128.899 192.137 130.957 190.319 132.563C188.601 134.069 186.428 134.822 183.801 134.822H141.362L142.726 132.262V161.624L141.513 160.42H176.981C179.608 160.42 181.78 161.273 183.498 162.979C185.317 164.585 186.226 166.693 186.226 169.303C186.226 171.813 185.317 173.871 183.498 175.477C181.78 176.983 179.608 177.736 176.981 177.736H141.968L142.726 176.531V206.947L141.513 205.592H183.801C186.428 205.592 188.601 206.495 190.319 208.302C192.137 210.009 193.047 212.016 193.047 214.325C193.047 216.835 192.137 218.893 190.319 220.499C188.601 222.105 186.428 222.908 183.801 222.908H133.025C130.398 222.908 128.175 222.055 126.356 220.348C124.639 218.541 123.78 216.333 123.78 213.723V126.691C123.78 124.081 124.639 121.923 126.356 120.216C128.175 118.409 130.398 117.506 133.025 117.506Z"/>
<path d="M287.97 117.205C290.496 117.205 292.668 118.058 294.487 119.764C296.407 121.37 297.367 123.428 297.367 125.938C297.367 127.243 297.064 128.598 296.457 130.003L259.02 217.036C258.11 219.043 256.797 220.549 255.079 221.553C253.462 222.456 251.795 222.908 250.077 222.908C248.461 222.808 246.894 222.306 245.379 221.402C243.863 220.398 242.701 218.993 241.892 217.186L204.455 129.853C204.152 129.251 203.95 128.648 203.849 128.046C203.748 127.343 203.697 126.691 203.697 126.089C203.697 123.177 204.758 120.969 206.88 119.463C209.002 117.857 211.023 117.054 212.943 117.054C216.783 117.054 219.561 119.011 221.279 122.926L254.473 200.472L249.168 200.623L279.633 122.926C281.351 119.112 284.13 117.205 287.97 117.205Z"/>
<path d="M316.727 247C314.605 247 312.837 246.297 311.423 244.892C310.109 243.587 309.452 241.931 309.452 239.923C309.452 237.915 310.109 236.209 311.423 234.803C312.837 233.498 314.605 232.846 316.727 232.846H393.725C395.847 232.846 397.564 233.498 398.878 234.803C400.293 236.209 401 237.966 401 240.074C401 242.081 400.293 243.738 398.878 245.043C397.564 246.348 395.847 247 393.725 247H316.727Z"/>
</mask>
<path d="M-392.592 224.414C-399.665 224.414 -406.031 223.561 -411.69 221.854C-417.348 220.047 -422.754 216.935 -427.908 212.518C-429.221 211.414 -430.232 210.159 -430.939 208.754C-431.646 207.349 -432 205.943 -432 204.538C-432 202.229 -431.192 200.221 -429.575 198.515C-427.857 196.708 -425.735 195.805 -423.209 195.805C-421.289 195.805 -419.571 196.407 -418.056 197.611C-414.216 200.723 -410.427 203.082 -406.688 204.688C-402.848 206.295 -398.15 207.098 -392.592 207.098C-388.853 207.098 -385.418 206.546 -382.285 205.441C-379.153 204.237 -376.627 202.681 -374.707 200.774C-372.787 198.766 -371.827 196.507 -371.827 193.998C-371.827 190.986 -372.736 188.426 -374.555 186.318C-376.374 184.21 -379.153 182.454 -382.892 181.048C-386.63 179.543 -391.379 178.388 -397.139 177.585C-402.596 176.782 -407.395 175.577 -411.538 173.971C-415.681 172.265 -419.167 170.157 -421.996 167.647C-424.725 165.037 -426.796 162.026 -428.211 158.613C-429.625 155.099 -430.333 151.184 -430.333 146.868C-430.333 140.343 -428.665 134.772 -425.331 130.154C-421.895 125.536 -417.298 122.023 -411.538 119.614C-405.779 117.205 -399.413 116 -392.44 116C-385.872 116 -379.81 117.004 -374.252 119.011C-368.594 120.919 -363.996 123.378 -360.459 126.39C-357.529 128.698 -356.064 131.359 -356.064 134.37C-356.064 136.579 -356.923 138.586 -358.64 140.393C-360.358 142.2 -362.379 143.103 -364.703 143.103C-366.219 143.103 -367.583 142.652 -368.796 141.748C-370.412 140.343 -372.585 139.038 -375.313 137.833C-378.041 136.528 -380.921 135.474 -383.953 134.671C-386.984 133.768 -389.813 133.316 -392.44 133.316C-396.785 133.316 -400.474 133.868 -403.505 134.972C-406.435 136.077 -408.658 137.582 -410.174 139.49C-411.69 141.397 -412.448 143.605 -412.448 146.115C-412.448 149.126 -411.589 151.636 -409.871 153.644C-408.052 155.551 -405.475 157.107 -402.141 158.311C-398.806 159.416 -394.815 160.42 -390.167 161.323C-384.104 162.427 -378.799 163.732 -374.252 165.238C-369.604 166.744 -365.764 168.701 -362.733 171.11C-359.701 173.419 -357.428 176.38 -355.912 179.994C-354.397 183.508 -353.639 187.824 -353.639 192.944C-353.639 199.469 -355.458 205.09 -359.095 209.808C-362.733 214.526 -367.533 218.14 -373.494 220.649C-379.355 223.159 -385.721 224.414 -392.592 224.414Z" fill="white"/>
<path d="M-297.303 141.146L-330.042 217.638C-330.75 219.545 -331.861 221.051 -333.377 222.155C-334.792 223.159 -336.358 223.661 -338.076 223.661C-340.804 223.661 -342.825 222.908 -344.138 221.402C-345.452 219.897 -346.109 218.039 -346.109 215.831C-346.109 214.928 -345.957 213.974 -345.654 212.97L-307.913 122.926C-307.105 120.919 -305.892 119.363 -304.276 118.259C-302.558 117.154 -300.739 116.703 -298.819 116.903C-297 116.903 -295.333 117.456 -293.817 118.56C-292.201 119.564 -291.039 121.019 -290.331 122.926L-253.045 211.163C-252.54 212.468 -252.287 213.673 -252.287 214.777C-252.287 217.487 -253.197 219.646 -255.016 221.252C-256.733 222.858 -258.653 223.661 -260.775 223.661C-262.594 223.661 -264.261 223.109 -265.777 222.005C-267.192 220.9 -268.303 219.395 -269.112 217.487L-301.699 142.049L-297.303 141.146ZM-325.344 199.268L-317.007 181.952H-276.084L-273.204 199.268H-325.344Z" fill="white"/>
<path d="M-178.367 117.054C-176.042 117.054 -173.971 117.957 -172.152 119.764C-170.232 121.471 -169.272 123.679 -169.272 126.39C-169.272 127.293 -169.424 128.247 -169.727 129.251C-169.929 130.154 -170.333 131.057 -170.94 131.961L-205.346 180.898L-202.618 170.508V213.723C-202.618 216.333 -203.527 218.541 -205.346 220.348C-207.064 222.055 -209.085 222.908 -211.409 222.908C-213.935 222.908 -216.107 222.055 -217.926 220.348C-219.644 218.541 -220.503 216.333 -220.503 213.723V171.713L-219.29 176.531L-252.029 133.316C-253.04 132.011 -253.747 130.756 -254.151 129.552C-254.555 128.347 -254.757 127.243 -254.757 126.239C-254.757 123.529 -253.696 121.32 -251.575 119.614C-249.453 117.907 -247.28 117.054 -245.057 117.054C-242.228 117.054 -239.752 118.459 -237.63 121.27L-208.529 161.172L-212.773 160.57L-185.945 121.571C-183.823 118.56 -181.297 117.054 -178.367 117.054Z" fill="white"/>
<path d="M-62.062 170.207C-62.062 177.736 -63.3251 184.762 -65.8512 191.287C-68.3774 197.812 -71.9645 203.584 -76.6126 208.603C-81.1597 213.522 -86.6162 217.387 -92.9821 220.198C-99.247 223.008 -106.118 224.414 -113.596 224.414C-121.073 224.414 -127.944 223.008 -134.209 220.198C-140.474 217.387 -145.93 213.522 -150.578 208.603C-155.126 203.584 -158.662 197.812 -161.188 191.287C-163.714 184.762 -164.978 177.736 -164.978 170.207C-164.978 162.678 -163.714 155.651 -161.188 149.126C-158.662 142.602 -155.126 136.88 -150.578 131.961C-145.93 126.942 -140.474 123.027 -134.209 120.216C-127.944 117.405 -121.073 116 -113.596 116C-106.118 116 -99.247 117.405 -92.9821 120.216C-86.6162 123.027 -81.1597 126.942 -76.6126 131.961C-71.9645 136.88 -68.3774 142.602 -65.8512 149.126C-63.3251 155.651 -62.062 162.678 -62.062 170.207ZM-81.766 170.207C-81.766 163.481 -83.1301 157.408 -85.8584 151.987C-88.5866 146.466 -92.3253 142.1 -97.0745 138.887C-101.824 135.675 -107.331 134.069 -113.596 134.069C-119.86 134.069 -125.367 135.675 -130.117 138.887C-134.866 142.1 -138.604 146.416 -141.333 151.837C-143.96 157.257 -145.274 163.381 -145.274 170.207C-145.274 176.933 -143.96 183.056 -141.333 188.577C-138.604 193.998 -134.866 198.314 -130.117 201.526C-125.367 204.739 -119.86 206.345 -113.596 206.345C-107.331 206.345 -101.824 204.739 -97.0745 201.526C-92.3253 198.314 -88.5866 193.998 -85.8584 188.577C-83.1301 183.056 -81.766 176.933 -81.766 170.207Z" fill="#E00303"/>
<path d="M-39.207 185.716C-41.8342 185.716 -44.0572 184.863 -45.876 183.156C-47.5938 181.45 -48.4527 179.292 -48.4527 176.682C-48.4527 174.072 -47.5938 171.964 -45.876 170.357C-44.0572 168.651 -41.8342 167.798 -39.207 167.798H-12.834C-10.2068 167.798 -8.03422 168.701 -6.31644 170.508C-4.4976 172.215 -3.5882 174.373 -3.5882 176.983C-3.5882 179.492 -4.4976 181.6 -6.31644 183.307C-8.03422 184.913 -10.2068 185.716 -12.834 185.716H-39.207Z" fill="white"/>
<path d="M60.9022 117.506C68.1775 117.506 74.6445 118.861 80.303 121.571C85.9616 124.282 90.7108 128.096 94.5505 133.015C98.4913 137.833 101.422 143.455 103.342 149.879C105.362 156.203 106.373 162.979 106.373 170.207C106.373 179.944 104.605 188.828 101.068 196.859C97.5314 204.789 92.3781 211.113 85.608 215.831C78.9389 220.549 70.7036 222.908 60.9022 222.908H24.6771C22.0499 222.908 19.8269 222.055 18.0081 220.348C16.2903 218.541 15.4313 216.333 15.4313 213.723V126.691C15.4313 124.081 16.2903 121.923 18.0081 120.216C19.8269 118.409 22.0499 117.506 24.6771 117.506H60.9022ZM59.3865 205.592C65.7524 205.592 70.9563 203.986 74.9981 200.774C79.04 197.461 81.9703 193.144 83.7891 187.824C85.709 182.403 86.6689 176.531 86.6689 170.207C86.6689 165.489 86.1132 161.022 85.0017 156.806C83.9912 152.489 82.3744 148.725 80.1514 145.513C77.9284 142.2 75.0992 139.59 71.6636 137.683C68.228 135.775 64.1356 134.822 59.3865 134.822H32.8618L34.3775 133.467V207.248L33.4681 205.592H59.3865Z" fill="white"/>
<path d="M133.025 117.506H183.801C186.428 117.506 188.601 118.359 190.319 120.066C192.137 121.672 193.047 123.78 193.047 126.39C193.047 128.899 192.137 130.957 190.319 132.563C188.601 134.069 186.428 134.822 183.801 134.822H141.362L142.726 132.262V161.624L141.513 160.42H176.981C179.608 160.42 181.78 161.273 183.498 162.979C185.317 164.585 186.226 166.693 186.226 169.303C186.226 171.813 185.317 173.871 183.498 175.477C181.78 176.983 179.608 177.736 176.981 177.736H141.968L142.726 176.531V206.947L141.513 205.592H183.801C186.428 205.592 188.601 206.495 190.319 208.302C192.137 210.009 193.047 212.016 193.047 214.325C193.047 216.835 192.137 218.893 190.319 220.499C188.601 222.105 186.428 222.908 183.801 222.908H133.025C130.398 222.908 128.175 222.055 126.356 220.348C124.639 218.541 123.78 216.333 123.78 213.723V126.691C123.78 124.081 124.639 121.923 126.356 120.216C128.175 118.409 130.398 117.506 133.025 117.506Z" fill="white"/>
<path d="M287.97 117.205C290.496 117.205 292.668 118.058 294.487 119.764C296.407 121.37 297.367 123.428 297.367 125.938C297.367 127.243 297.064 128.598 296.457 130.003L259.02 217.036C258.11 219.043 256.797 220.549 255.079 221.553C253.462 222.456 251.795 222.908 250.077 222.908C248.461 222.808 246.894 222.306 245.379 221.402C243.863 220.398 242.701 218.993 241.892 217.186L204.455 129.853C204.152 129.251 203.95 128.648 203.849 128.046C203.748 127.343 203.697 126.691 203.697 126.089C203.697 123.177 204.758 120.969 206.88 119.463C209.002 117.857 211.023 117.054 212.943 117.054C216.783 117.054 219.561 119.011 221.279 122.926L254.473 200.472L249.168 200.623L279.633 122.926C281.351 119.112 284.13 117.205 287.97 117.205Z" fill="white"/>
<path d="M316.727 247C314.605 247 312.837 246.297 311.423 244.892C310.109 243.587 309.452 241.931 309.452 239.923C309.452 237.915 310.109 236.209 311.423 234.803C312.837 233.498 314.605 232.846 316.727 232.846H393.725C395.847 232.846 397.564 233.498 398.878 234.803C400.293 236.209 401 237.966 401 240.074C401 242.081 400.293 243.738 398.878 245.043C397.564 246.348 395.847 247 393.725 247H316.727Z" fill="#4848FB"/>
<path d="M-392.592 224.414C-399.665 224.414 -406.031 223.561 -411.69 221.854C-417.348 220.047 -422.754 216.935 -427.908 212.518C-429.221 211.414 -430.232 210.159 -430.939 208.754C-431.646 207.349 -432 205.943 -432 204.538C-432 202.229 -431.192 200.221 -429.575 198.515C-427.857 196.708 -425.735 195.805 -423.209 195.805C-421.289 195.805 -419.571 196.407 -418.056 197.611C-414.216 200.723 -410.427 203.082 -406.688 204.688C-402.848 206.295 -398.15 207.098 -392.592 207.098C-388.853 207.098 -385.418 206.546 -382.285 205.441C-379.153 204.237 -376.627 202.681 -374.707 200.774C-372.787 198.766 -371.827 196.507 -371.827 193.998C-371.827 190.986 -372.736 188.426 -374.555 186.318C-376.374 184.21 -379.153 182.454 -382.892 181.048C-386.63 179.543 -391.379 178.388 -397.139 177.585C-402.596 176.782 -407.395 175.577 -411.538 173.971C-415.681 172.265 -419.167 170.157 -421.996 167.647C-424.725 165.037 -426.796 162.026 -428.211 158.613C-429.625 155.099 -430.333 151.184 -430.333 146.868C-430.333 140.343 -428.665 134.772 -425.331 130.154C-421.895 125.536 -417.298 122.023 -411.538 119.614C-405.779 117.205 -399.413 116 -392.44 116C-385.872 116 -379.81 117.004 -374.252 119.011C-368.594 120.919 -363.996 123.378 -360.459 126.39C-357.529 128.698 -356.064 131.359 -356.064 134.37C-356.064 136.579 -356.923 138.586 -358.64 140.393C-360.358 142.2 -362.379 143.103 -364.703 143.103C-366.219 143.103 -367.583 142.652 -368.796 141.748C-370.412 140.343 -372.585 139.038 -375.313 137.833C-378.041 136.528 -380.921 135.474 -383.953 134.671C-386.984 133.768 -389.813 133.316 -392.44 133.316C-396.785 133.316 -400.474 133.868 -403.505 134.972C-406.435 136.077 -408.658 137.582 -410.174 139.49C-411.69 141.397 -412.448 143.605 -412.448 146.115C-412.448 149.126 -411.589 151.636 -409.871 153.644C-408.052 155.551 -405.475 157.107 -402.141 158.311C-398.806 159.416 -394.815 160.42 -390.167 161.323C-384.104 162.427 -378.799 163.732 -374.252 165.238C-369.604 166.744 -365.764 168.701 -362.733 171.11C-359.701 173.419 -357.428 176.38 -355.912 179.994C-354.397 183.508 -353.639 187.824 -353.639 192.944C-353.639 199.469 -355.458 205.09 -359.095 209.808C-362.733 214.526 -367.533 218.14 -373.494 220.649C-379.355 223.159 -385.721 224.414 -392.592 224.414Z" stroke="white" stroke-width="4" mask="url(#path-3-outside-3_7065_53)"/>
<path d="M-297.303 141.146L-330.042 217.638C-330.75 219.545 -331.861 221.051 -333.377 222.155C-334.792 223.159 -336.358 223.661 -338.076 223.661C-340.804 223.661 -342.825 222.908 -344.138 221.402C-345.452 219.897 -346.109 218.039 -346.109 215.831C-346.109 214.928 -345.957 213.974 -345.654 212.97L-307.913 122.926C-307.105 120.919 -305.892 119.363 -304.276 118.259C-302.558 117.154 -300.739 116.703 -298.819 116.903C-297 116.903 -295.333 117.456 -293.817 118.56C-292.201 119.564 -291.039 121.019 -290.331 122.926L-253.045 211.163C-252.54 212.468 -252.287 213.673 -252.287 214.777C-252.287 217.487 -253.197 219.646 -255.016 221.252C-256.733 222.858 -258.653 223.661 -260.775 223.661C-262.594 223.661 -264.261 223.109 -265.777 222.005C-267.192 220.9 -268.303 219.395 -269.112 217.487L-301.699 142.049L-297.303 141.146ZM-325.344 199.268L-317.007 181.952H-276.084L-273.204 199.268H-325.344Z" stroke="white" stroke-width="4" mask="url(#path-3-outside-3_7065_53)"/>
<path d="M-178.367 117.054C-176.042 117.054 -173.971 117.957 -172.152 119.764C-170.232 121.471 -169.272 123.679 -169.272 126.39C-169.272 127.293 -169.424 128.247 -169.727 129.251C-169.929 130.154 -170.333 131.057 -170.94 131.961L-205.346 180.898L-202.618 170.508V213.723C-202.618 216.333 -203.527 218.541 -205.346 220.348C-207.064 222.055 -209.085 222.908 -211.409 222.908C-213.935 222.908 -216.107 222.055 -217.926 220.348C-219.644 218.541 -220.503 216.333 -220.503 213.723V171.713L-219.29 176.531L-252.029 133.316C-253.04 132.011 -253.747 130.756 -254.151 129.552C-254.555 128.347 -254.757 127.243 -254.757 126.239C-254.757 123.529 -253.696 121.32 -251.575 119.614C-249.453 117.907 -247.28 117.054 -245.057 117.054C-242.228 117.054 -239.752 118.459 -237.63 121.27L-208.529 161.172L-212.773 160.57L-185.945 121.571C-183.823 118.56 -181.297 117.054 -178.367 117.054Z" stroke="white" stroke-width="4" mask="url(#path-3-outside-3_7065_53)"/>
<path d="M-62.062 170.207C-62.062 177.736 -63.3251 184.762 -65.8512 191.287C-68.3774 197.812 -71.9645 203.584 -76.6126 208.603C-81.1597 213.522 -86.6162 217.387 -92.9821 220.198C-99.247 223.008 -106.118 224.414 -113.596 224.414C-121.073 224.414 -127.944 223.008 -134.209 220.198C-140.474 217.387 -145.93 213.522 -150.578 208.603C-155.126 203.584 -158.662 197.812 -161.188 191.287C-163.714 184.762 -164.978 177.736 -164.978 170.207C-164.978 162.678 -163.714 155.651 -161.188 149.126C-158.662 142.602 -155.126 136.88 -150.578 131.961C-145.93 126.942 -140.474 123.027 -134.209 120.216C-127.944 117.405 -121.073 116 -113.596 116C-106.118 116 -99.247 117.405 -92.9821 120.216C-86.6162 123.027 -81.1597 126.942 -76.6126 131.961C-71.9645 136.88 -68.3774 142.602 -65.8512 149.126C-63.3251 155.651 -62.062 162.678 -62.062 170.207ZM-81.766 170.207C-81.766 163.481 -83.1301 157.408 -85.8584 151.987C-88.5866 146.466 -92.3253 142.1 -97.0745 138.887C-101.824 135.675 -107.331 134.069 -113.596 134.069C-119.86 134.069 -125.367 135.675 -130.117 138.887C-134.866 142.1 -138.604 146.416 -141.333 151.837C-143.96 157.257 -145.274 163.381 -145.274 170.207C-145.274 176.933 -143.96 183.056 -141.333 188.577C-138.604 193.998 -134.866 198.314 -130.117 201.526C-125.367 204.739 -119.86 206.345 -113.596 206.345C-107.331 206.345 -101.824 204.739 -97.0745 201.526C-92.3253 198.314 -88.5866 193.998 -85.8584 188.577C-83.1301 183.056 -81.766 176.933 -81.766 170.207Z" stroke="white" stroke-width="4" mask="url(#path-3-outside-3_7065_53)"/>
<path d="M-39.207 185.716C-41.8342 185.716 -44.0572 184.863 -45.876 183.156C-47.5938 181.45 -48.4527 179.292 -48.4527 176.682C-48.4527 174.072 -47.5938 171.964 -45.876 170.357C-44.0572 168.651 -41.8342 167.798 -39.207 167.798H-12.834C-10.2068 167.798 -8.03422 168.701 -6.31644 170.508C-4.4976 172.215 -3.5882 174.373 -3.5882 176.983C-3.5882 179.492 -4.4976 181.6 -6.31644 183.307C-8.03422 184.913 -10.2068 185.716 -12.834 185.716H-39.207Z" stroke="white" stroke-width="4" mask="url(#path-3-outside-3_7065_53)"/>
<path d="M60.9022 117.506C68.1775 117.506 74.6445 118.861 80.303 121.571C85.9616 124.282 90.7108 128.096 94.5505 133.015C98.4913 137.833 101.422 143.455 103.342 149.879C105.362 156.203 106.373 162.979 106.373 170.207C106.373 179.944 104.605 188.828 101.068 196.859C97.5314 204.789 92.3781 211.113 85.608 215.831C78.9389 220.549 70.7036 222.908 60.9022 222.908H24.6771C22.0499 222.908 19.8269 222.055 18.0081 220.348C16.2903 218.541 15.4313 216.333 15.4313 213.723V126.691C15.4313 124.081 16.2903 121.923 18.0081 120.216C19.8269 118.409 22.0499 117.506 24.6771 117.506H60.9022ZM59.3865 205.592C65.7524 205.592 70.9563 203.986 74.9981 200.774C79.04 197.461 81.9703 193.144 83.7891 187.824C85.709 182.403 86.6689 176.531 86.6689 170.207C86.6689 165.489 86.1132 161.022 85.0017 156.806C83.9912 152.489 82.3744 148.725 80.1514 145.513C77.9284 142.2 75.0992 139.59 71.6636 137.683C68.228 135.775 64.1356 134.822 59.3865 134.822H32.8618L34.3775 133.467V207.248L33.4681 205.592H59.3865Z" stroke="white" stroke-width="4" mask="url(#path-3-outside-3_7065_53)"/>
<path d="M133.025 117.506H183.801C186.428 117.506 188.601 118.359 190.319 120.066C192.137 121.672 193.047 123.78 193.047 126.39C193.047 128.899 192.137 130.957 190.319 132.563C188.601 134.069 186.428 134.822 183.801 134.822H141.362L142.726 132.262V161.624L141.513 160.42H176.981C179.608 160.42 181.78 161.273 183.498 162.979C185.317 164.585 186.226 166.693 186.226 169.303C186.226 171.813 185.317 173.871 183.498 175.477C181.78 176.983 179.608 177.736 176.981 177.736H141.968L142.726 176.531V206.947L141.513 205.592H183.801C186.428 205.592 188.601 206.495 190.319 208.302C192.137 210.009 193.047 212.016 193.047 214.325C193.047 216.835 192.137 218.893 190.319 220.499C188.601 222.105 186.428 222.908 183.801 222.908H133.025C130.398 222.908 128.175 222.055 126.356 220.348C124.639 218.541 123.78 216.333 123.78 213.723V126.691C123.78 124.081 124.639 121.923 126.356 120.216C128.175 118.409 130.398 117.506 133.025 117.506Z" stroke="white" stroke-width="4" mask="url(#path-3-outside-3_7065_53)"/>
<path d="M287.97 117.205C290.496 117.205 292.668 118.058 294.487 119.764C296.407 121.37 297.367 123.428 297.367 125.938C297.367 127.243 297.064 128.598 296.457 130.003L259.02 217.036C258.11 219.043 256.797 220.549 255.079 221.553C253.462 222.456 251.795 222.908 250.077 222.908C248.461 222.808 246.894 222.306 245.379 221.402C243.863 220.398 242.701 218.993 241.892 217.186L204.455 129.853C204.152 129.251 203.95 128.648 203.849 128.046C203.748 127.343 203.697 126.691 203.697 126.089C203.697 123.177 204.758 120.969 206.88 119.463C209.002 117.857 211.023 117.054 212.943 117.054C216.783 117.054 219.561 119.011 221.279 122.926L254.473 200.472L249.168 200.623L279.633 122.926C281.351 119.112 284.13 117.205 287.97 117.205Z" stroke="white" stroke-width="4" mask="url(#path-3-outside-3_7065_53)"/>
<path d="M316.727 247C314.605 247 312.837 246.297 311.423 244.892C310.109 243.587 309.452 241.931 309.452 239.923C309.452 237.915 310.109 236.209 311.423 234.803C312.837 233.498 314.605 232.846 316.727 232.846H393.725C395.847 232.846 397.564 233.498 398.878 234.803C400.293 236.209 401 237.966 401 240.074C401 242.081 400.293 243.738 398.878 245.043C397.564 246.348 395.847 247 393.725 247H316.727Z" stroke="white" stroke-width="4" mask="url(#path-3-outside-3_7065_53)"/>
</g>
<defs>
<clipPath id="clip0_7065_53">
<rect width="375" height="131" fill="white" transform="translate(13)"/>
</clipPath>
<clipPath id="clip1_7065_53">
<rect width="299" height="131" fill="white" transform="translate(0 144)"/>
</clipPath>
<clipPath id="clip2_7065_53">
<rect width="79" height="37" fill="white" transform="translate(299 210)"/>
</clipPath>
</defs>
</svg>
