<svg width="1117" height="240" viewBox="0 0 1117 240" fill="none" xmlns="http://www.w3.org/2000/svg">
<path d="M11.7 212.135C9.7 212.135 8.1 211.602 6.9 210.535C5.7 209.468 5.1 208.002 5.1 206.135V171.135C5.1 161.468 7.86667 153.902 13.4 148.435C18.9333 142.968 26.6333 140.235 36.5 140.235C42.9667 140.235 48.5667 141.468 53.3 143.935C58.0333 146.402 61.6333 149.968 64.1 154.635C66.6333 159.302 67.9 164.802 67.9 171.135V206.135C67.9 208.002 67.3 209.468 66.1 210.535C64.9 211.602 63.3 212.135 61.3 212.135C59.3 212.135 57.6667 211.602 56.4 210.535C55.2 209.402 54.6 207.935 54.6 206.135V189.835H18.4V206.135C18.4 207.935 17.7667 209.402 16.5 210.535C15.3 211.602 13.7 212.135 11.7 212.135ZM54.6 179.535V170.835C54.6 164.168 53.0667 159.168 50 155.835C47 152.435 42.5 150.735 36.5 150.735C24.4333 150.735 18.4 157.435 18.4 170.835V179.535H54.6ZM94.6469 211.235C89.5802 211.235 85.6469 209.902 82.8469 207.235C80.0469 204.568 78.6469 200.835 78.6469 196.035V156.035C78.6469 151.368 79.9802 147.735 82.6469 145.135C85.3802 142.535 89.1469 141.235 93.9469 141.235H107.947C115.614 141.235 122.247 142.635 127.847 145.435C133.447 148.235 137.714 152.268 140.647 157.535C143.647 162.802 145.147 169.068 145.147 176.335C145.147 183.602 143.647 189.868 140.647 195.135C137.714 200.335 133.447 204.335 127.847 207.135C122.314 209.868 115.68 211.235 107.947 211.235H94.6469ZM106.947 200.935C115.28 200.935 121.48 198.935 125.547 194.935C129.614 190.868 131.647 184.668 131.647 176.335C131.647 168.002 129.58 161.802 125.447 157.735C121.38 153.602 115.214 151.535 106.947 151.535H96.2469C94.9135 151.535 93.8469 151.968 93.0469 152.835C92.3135 153.702 91.9469 154.902 91.9469 156.435V196.035C91.9469 197.568 92.3135 198.768 93.0469 199.635C93.8469 200.502 94.9135 200.935 96.2469 200.935H106.947ZM171.307 211.235C166.24 211.235 162.307 209.902 159.507 207.235C156.707 204.568 155.307 200.835 155.307 196.035V156.035C155.307 151.368 156.64 147.735 159.307 145.135C162.04 142.535 165.807 141.235 170.607 141.235H201.707C203.707 141.235 205.24 141.702 206.307 142.635C207.374 143.502 207.907 144.768 207.907 146.435C207.907 148.035 207.34 149.302 206.207 150.235C205.14 151.102 203.64 151.535 201.707 151.535H172.907C171.574 151.535 170.507 151.968 169.707 152.835C168.974 153.702 168.607 154.902 168.607 156.435V170.335H194.107C196.107 170.335 197.64 170.802 198.707 171.735C199.774 172.602 200.307 173.868 200.307 175.535C200.307 177.135 199.74 178.402 198.607 179.335C197.54 180.202 196.04 180.635 194.107 180.635H168.607V196.035C168.607 197.568 168.974 198.768 169.707 199.635C170.507 200.502 171.574 200.935 172.907 200.935H203.907C205.907 200.935 207.44 201.402 208.507 202.335C209.574 203.202 210.107 204.468 210.107 206.135C210.107 207.735 209.54 209.002 208.407 209.935C207.34 210.802 205.84 211.235 203.907 211.235H171.307ZM251.554 212.235C244.021 212.235 237.487 210.802 231.954 207.935C226.421 205.068 222.187 200.935 219.254 195.535C216.321 190.135 214.854 183.735 214.854 176.335C214.854 168.935 216.321 162.535 219.254 157.135C222.187 151.668 226.387 147.502 231.854 144.635C237.387 141.702 243.887 140.235 251.354 140.235C257.554 140.235 263.287 141.302 268.554 143.435C273.821 145.568 277.721 148.402 280.254 151.935C281.054 153.002 281.454 154.102 281.454 155.235C281.454 156.902 280.554 158.402 278.754 159.735C277.954 160.335 276.954 160.635 275.754 160.635C274.754 160.635 273.754 160.435 272.754 160.035C271.754 159.568 270.921 158.935 270.254 158.135C267.987 155.535 265.354 153.668 262.354 152.535C259.354 151.335 255.687 150.735 251.354 150.735C244.087 150.735 238.421 153.002 234.354 157.535C230.287 162.002 228.254 168.268 228.254 176.335C228.254 184.335 230.287 190.568 234.354 195.035C238.487 199.502 244.221 201.735 251.554 201.735C257.621 201.735 262.354 200.568 265.754 198.235C269.221 195.902 270.954 192.668 270.954 188.535V186.335C270.954 184.935 270.621 183.968 269.954 183.435C269.354 182.902 268.287 182.635 266.754 182.635H253.654C251.787 182.635 250.321 182.202 249.254 181.335C248.187 180.402 247.654 179.135 247.654 177.535C247.654 175.868 248.154 174.602 249.154 173.735C250.221 172.802 251.721 172.335 253.654 172.335H273.054C276.921 172.335 279.754 173.168 281.554 174.835C283.354 176.435 284.254 179.002 284.254 182.535V186.435C284.254 191.502 282.887 196.002 280.154 199.935C277.421 203.802 273.554 206.835 268.554 209.035C263.621 211.168 257.954 212.235 251.554 212.235ZM330.867 212.235C323.067 212.235 316.334 210.735 310.667 207.735C305.067 204.668 300.801 200.435 297.867 195.035C294.934 189.568 293.467 183.302 293.467 176.235C293.467 169.168 294.934 162.935 297.867 157.535C300.801 152.068 305.067 147.835 310.667 144.835C316.334 141.768 323.067 140.235 330.867 140.235C338.667 140.235 345.367 141.768 350.967 144.835C356.634 147.835 360.934 152.068 363.867 157.535C366.801 162.935 368.267 169.168 368.267 176.235C368.267 183.302 366.801 189.568 363.867 195.035C360.934 200.435 356.634 204.668 350.967 207.735C345.367 210.735 338.667 212.235 330.867 212.235ZM330.867 201.735C338.467 201.735 344.367 199.468 348.567 194.935C352.767 190.335 354.867 184.102 354.867 176.235C354.867 168.302 352.667 162.068 348.267 157.535C343.934 153.002 337.801 150.735 329.867 150.735C322.601 150.735 316.934 153.068 312.867 157.735C308.867 162.335 306.867 168.502 306.867 176.235C306.867 184.102 308.967 190.335 313.167 194.935C317.367 199.468 323.267 201.735 330.867 201.735ZM378.452 156.035C378.452 151.368 379.785 147.735 382.452 145.135C385.185 142.535 388.952 141.235 393.752 141.235H411.552C421.485 141.235 428.985 143.168 434.052 147.035C439.118 150.902 441.652 156.668 441.652 164.335C441.652 171.468 439.518 177.035 435.252 181.035C431.052 185.035 425.385 187.035 418.252 187.035L433.452 202.135C434.652 203.335 435.252 204.702 435.252 206.235C435.252 207.835 434.552 209.235 433.152 210.435C431.685 211.568 430.252 212.135 428.852 212.135C426.918 212.135 425.152 211.268 423.552 209.535L401.952 187.435H391.752V206.235C391.752 208.102 391.118 209.568 389.852 210.635C388.585 211.702 386.985 212.235 385.052 212.235C383.052 212.235 381.452 211.702 380.252 210.635C379.052 209.568 378.452 208.102 378.452 206.235V156.035ZM411.152 177.135C415.552 177.135 418.985 176.702 421.452 175.835C423.918 174.968 425.652 173.635 426.652 171.835C427.718 169.968 428.252 167.468 428.252 164.335C428.252 159.802 426.852 156.535 424.052 154.535C421.318 152.535 417.018 151.535 411.152 151.535H396.052C394.718 151.535 393.652 151.968 392.852 152.835C392.118 153.702 391.752 154.902 391.752 156.435V177.135H411.152ZM485.75 212.235C477.95 212.235 471.217 210.735 465.55 207.735C459.95 204.668 455.683 200.435 452.75 195.035C449.817 189.568 448.35 183.302 448.35 176.235C448.35 169.168 449.817 162.935 452.75 157.535C455.683 152.068 459.95 147.835 465.55 144.835C471.217 141.768 477.95 140.235 485.75 140.235C493.55 140.235 500.25 141.768 505.85 144.835C511.517 147.835 515.817 152.068 518.75 157.535C521.683 162.935 523.15 169.168 523.15 176.235C523.15 183.302 521.683 189.568 518.75 195.035C515.817 200.435 511.517 204.668 505.85 207.735C500.25 210.735 493.55 212.235 485.75 212.235ZM485.75 201.735C493.35 201.735 499.25 199.468 503.45 194.935C507.65 190.335 509.75 184.102 509.75 176.235C509.75 168.302 507.55 162.068 503.15 157.535C498.817 153.002 492.683 150.735 484.75 150.735C477.483 150.735 471.817 153.068 467.75 157.735C463.75 162.335 461.75 168.502 461.75 176.235C461.75 184.102 463.85 190.335 468.05 194.935C472.25 199.468 478.15 201.735 485.75 201.735ZM587.395 140.235C589.395 140.235 590.995 140.768 592.195 141.835C593.395 142.902 593.995 144.368 593.995 146.235V156.735C593.995 165.602 591.762 172.835 587.295 178.435C582.829 183.968 576.595 187.335 568.595 188.535V206.235C568.595 208.035 567.962 209.502 566.695 210.635C565.495 211.702 563.895 212.235 561.895 212.235C559.895 212.235 558.295 211.702 557.095 210.635C555.895 209.568 555.295 208.102 555.295 206.235V188.535C547.229 187.335 540.962 183.968 536.495 178.435C532.029 172.902 529.795 165.668 529.795 156.735V146.235C529.795 144.368 530.395 142.902 531.595 141.835C532.795 140.768 534.395 140.235 536.395 140.235C538.395 140.235 539.995 140.802 541.195 141.935C542.462 143.002 543.095 144.435 543.095 146.235V157.035C543.095 163.968 544.695 169.302 547.895 173.035C551.162 176.702 555.829 178.535 561.895 178.535C567.962 178.535 572.595 176.702 575.795 173.035C579.062 169.302 580.695 163.968 580.695 157.035V146.235C580.695 144.435 581.295 143.002 582.495 141.935C583.762 140.802 585.395 140.235 587.395 140.235ZM620.233 211.235C615.166 211.235 611.233 209.902 608.433 207.235C605.633 204.568 604.233 200.835 604.233 196.035V156.035C604.233 151.368 605.566 147.735 608.233 145.135C610.966 142.535 614.733 141.235 619.533 141.235H650.633C652.633 141.235 654.166 141.702 655.233 142.635C656.299 143.502 656.833 144.768 656.833 146.435C656.833 148.035 656.266 149.302 655.133 150.235C654.066 151.102 652.566 151.535 650.633 151.535H621.833C620.499 151.535 619.433 151.968 618.633 152.835C617.899 153.702 617.533 154.902 617.533 156.435V170.335H643.033C645.033 170.335 646.566 170.802 647.633 171.735C648.699 172.602 649.233 173.868 649.233 175.535C649.233 177.135 648.666 178.402 647.533 179.335C646.466 180.202 644.966 180.635 643.033 180.635H617.533V196.035C617.533 197.568 617.899 198.768 618.633 199.635C619.433 200.502 620.499 200.935 621.833 200.935H652.833C654.833 200.935 656.366 201.402 657.433 202.335C658.499 203.202 659.033 204.468 659.033 206.135C659.033 207.735 658.466 209.002 657.333 209.935C656.266 210.802 654.766 211.235 652.833 211.235H620.233ZM729.83 212.235C723.296 212.235 717.163 211.168 711.43 209.035C705.696 206.835 700.73 203.702 696.53 199.635C695.53 198.635 695.03 197.502 695.03 196.235C695.03 194.768 695.696 193.368 697.03 192.035C698.096 190.968 699.263 190.435 700.53 190.435C701.863 190.435 703.463 191.202 705.33 192.735C708.463 195.602 712.163 197.835 716.43 199.435C720.763 200.968 725.23 201.735 729.83 201.735C734.23 201.735 737.663 201.002 740.13 199.535C742.596 198.002 743.83 195.868 743.83 193.135C743.83 190.268 742.496 187.968 739.83 186.235C737.163 184.435 732.63 182.835 726.23 181.435C716.163 179.235 708.83 176.335 704.23 172.735C699.696 169.135 697.43 164.502 697.43 158.835C697.43 155.235 698.63 152.035 701.03 149.235C703.43 146.368 706.763 144.168 711.03 142.635C715.363 141.035 720.296 140.235 725.83 140.235C732.03 140.235 737.53 141.268 742.33 143.335C747.196 145.335 750.896 148.168 753.43 151.835C754.296 153.235 754.73 154.435 754.73 155.435C754.663 157.102 753.83 158.535 752.23 159.735C751.363 160.335 750.363 160.635 749.23 160.635C747.163 160.635 745.463 159.835 744.13 158.235C742.196 155.902 739.596 154.068 736.33 152.735C733.13 151.402 729.63 150.735 725.83 150.735C721.096 150.735 717.396 151.468 714.73 152.935C712.13 154.335 710.83 156.302 710.83 158.835C710.83 161.368 712.096 163.468 714.63 165.135C717.23 166.735 721.696 168.268 728.03 169.735C735.03 171.402 740.663 173.302 744.93 175.435C749.196 177.502 752.296 179.968 754.23 182.835C756.23 185.702 757.23 189.135 757.23 193.135C757.23 196.935 756.096 200.302 753.83 203.235C751.563 206.102 748.363 208.335 744.23 209.935C740.096 211.468 735.296 212.235 729.83 212.235ZM773.516 212.135C771.516 212.135 769.916 211.602 768.716 210.535C767.516 209.468 766.916 208.002 766.916 206.135V171.135C766.916 161.468 769.683 153.902 775.216 148.435C780.75 142.968 788.45 140.235 798.316 140.235C804.783 140.235 810.383 141.468 815.116 143.935C819.85 146.402 823.45 149.968 825.916 154.635C828.45 159.302 829.716 164.802 829.716 171.135V206.135C829.716 208.002 829.116 209.468 827.916 210.535C826.716 211.602 825.116 212.135 823.116 212.135C821.116 212.135 819.483 211.602 818.216 210.535C817.016 209.402 816.416 207.935 816.416 206.135V189.835H780.216V206.135C780.216 207.935 779.583 209.402 778.316 210.535C777.116 211.602 775.516 212.135 773.516 212.135ZM816.416 179.535V170.835C816.416 164.168 814.883 159.168 811.816 155.835C808.816 152.435 804.316 150.735 798.316 150.735C786.25 150.735 780.216 157.435 780.216 170.835V179.535H816.416ZM894.524 140.235C896.524 140.235 898.124 140.768 899.324 141.835C900.524 142.902 901.124 144.368 901.124 146.235V156.735C901.124 165.602 898.891 172.835 894.424 178.435C889.958 183.968 883.724 187.335 875.724 188.535V206.235C875.724 208.035 875.091 209.502 873.824 210.635C872.624 211.702 871.024 212.235 869.024 212.235C867.024 212.235 865.424 211.702 864.224 210.635C863.024 209.568 862.424 208.102 862.424 206.235V188.535C854.358 187.335 848.091 183.968 843.624 178.435C839.158 172.902 836.924 165.668 836.924 156.735V146.235C836.924 144.368 837.524 142.902 838.724 141.835C839.924 140.768 841.524 140.235 843.524 140.235C845.524 140.235 847.124 140.802 848.324 141.935C849.591 143.002 850.224 144.435 850.224 146.235V157.035C850.224 163.968 851.824 169.302 855.024 173.035C858.291 176.702 862.958 178.535 869.024 178.535C875.091 178.535 879.724 176.702 882.924 173.035C886.191 169.302 887.824 163.968 887.824 157.035V146.235C887.824 144.435 888.424 143.002 889.624 141.935C890.891 140.802 892.524 140.235 894.524 140.235ZM945.223 212.235C937.423 212.235 930.689 210.735 925.023 207.735C919.423 204.668 915.156 200.435 912.223 195.035C909.289 189.568 907.823 183.302 907.823 176.235C907.823 169.168 909.289 162.935 912.223 157.535C915.156 152.068 919.423 147.835 925.023 144.835C930.689 141.768 937.423 140.235 945.223 140.235C953.023 140.235 959.723 141.768 965.323 144.835C970.989 147.835 975.289 152.068 978.223 157.535C981.156 162.935 982.623 169.168 982.623 176.235C982.623 183.302 981.156 189.568 978.223 195.035C975.289 200.435 970.989 204.668 965.323 207.735C959.723 210.735 953.023 212.235 945.223 212.235ZM945.223 201.735C952.823 201.735 958.723 199.468 962.923 194.935C967.123 190.335 969.223 184.102 969.223 176.235C969.223 168.302 967.023 162.068 962.623 157.535C958.289 153.002 952.156 150.735 944.223 150.735C936.956 150.735 931.289 153.068 927.223 157.735C923.223 162.335 921.223 168.502 921.223 176.235C921.223 184.102 923.323 190.335 927.523 194.935C931.723 199.468 937.623 201.735 945.223 201.735Z" fill="#4C4C4C"/>
<path d="M934.652 99.3262C933.786 101.523 932.514 102.89 930.837 103.427C930.464 103.532 930.162 103.539 929.93 103.447C929.602 103.318 929.383 103.035 929.272 102.597C929.213 102.306 929.227 102.051 929.313 101.833C929.431 101.533 929.671 101.304 930.033 101.147C930.679 100.866 931.191 100.547 931.568 100.191C931.937 99.8164 932.25 99.3014 932.508 98.6465C932.729 98.087 932.839 97.5867 932.84 97.1455C932.84 96.7043 932.731 96.4406 932.513 96.3546C932.24 96.247 931.946 96.3125 931.632 96.551C931.317 96.7895 930.821 97.3272 930.144 98.164C929.089 99.482 928.185 100.355 927.433 100.784C926.667 101.207 925.902 101.268 925.138 100.967C924.278 100.628 923.748 99.9936 923.547 99.0631C923.346 98.1327 923.501 97.0193 924.012 95.7231C924.405 94.727 924.91 93.8856 925.528 93.1989C926.145 92.5122 926.779 92.0841 927.429 91.9148C927.731 91.8288 927.998 91.8316 928.23 91.923C928.557 92.0521 928.759 92.3207 928.834 92.7289C928.893 93.02 928.874 93.2884 928.777 93.534C928.621 93.9297 928.315 94.2267 927.858 94.4251C927.491 94.5958 927.154 94.8726 926.845 95.2554C926.542 95.6246 926.291 96.0616 926.092 96.5665C925.715 97.5216 925.752 98.0879 926.203 98.2654C926.38 98.3354 926.566 98.3222 926.762 98.2259C926.958 98.1296 927.206 97.92 927.506 97.5971C927.813 97.2606 928.259 96.7272 928.847 95.9971C929.783 94.8213 930.602 94.0641 931.303 93.7256C932.009 93.3734 932.765 93.356 933.57 93.6734C934.43 94.0122 934.969 94.6823 935.19 95.6834C935.396 96.6792 935.217 97.8935 934.652 99.3262Z" fill="black"/>
<path d="M943.571 83.5763C942.789 84.5847 941.913 85.3436 940.942 85.8532C939.969 86.3422 938.976 86.5462 937.962 86.4654C936.948 86.3846 936.001 86.0026 935.12 85.3196C934.239 84.6366 933.633 83.8142 933.303 82.8525C932.972 81.8908 932.928 80.8823 933.171 79.8272C933.411 78.7514 933.922 77.7094 934.704 76.701C935.486 75.6926 936.363 74.944 937.336 74.455C938.307 73.9455 939.299 73.7311 940.313 73.8119C941.326 73.8928 942.274 74.2747 943.155 74.9577C944.036 75.6408 944.641 76.4631 944.972 77.4248C945.303 78.3865 945.348 79.4053 945.108 80.481C944.865 81.5362 944.353 82.568 943.571 83.5763ZM941.763 82.1743C942.455 81.2818 942.766 80.4009 942.698 79.5314C942.639 78.6503 942.198 77.8907 941.375 77.2526C940.552 76.6145 939.707 76.3765 938.839 76.5386C937.98 76.6891 937.204 77.2106 936.512 78.103C935.82 78.9955 935.504 79.8823 935.563 80.7633C935.631 81.6328 936.077 82.3866 936.899 83.0247C937.722 83.6628 938.563 83.9066 939.422 83.7561C940.29 83.594 941.07 83.0668 941.763 82.1743Z" fill="black"/>
<path d="M949.801 56.4318C950.235 56.4001 950.562 56.5311 950.781 56.8247C950.895 56.9774 950.967 57.1711 950.996 57.4058C951.045 57.8635 950.929 58.1978 950.647 58.4086C950.518 58.5052 950.327 58.5929 950.075 58.6718C949.444 58.8322 948.911 59.075 948.477 59.4C948.148 59.6459 947.962 59.9492 947.921 60.31C947.87 60.659 947.973 61.0038 948.227 61.3444L949.229 62.6834L951.255 61.1682C951.619 60.8959 951.962 60.7673 952.285 60.7824C952.619 60.7888 952.892 60.9329 953.103 61.2148C953.305 61.4849 953.362 61.7813 953.273 62.1038C953.196 62.4176 952.976 62.7106 952.612 62.9829L950.586 64.4981L955.026 70.4355C955.272 70.7643 955.365 71.0974 955.306 71.4346C955.247 71.7719 955.035 72.0767 954.671 72.349C954.319 72.6125 953.967 72.7293 953.615 72.6995C953.263 72.6697 952.964 72.4903 952.718 72.1615L948.278 66.2241L947.89 66.5139C947.538 66.7775 947.194 66.906 946.86 66.8997C946.526 66.8934 946.257 66.7551 946.055 66.485C945.845 66.2031 945.778 65.9053 945.854 65.5915C945.943 65.269 946.169 64.9716 946.533 64.6993L946.921 64.4094L945.972 63.1409C945.296 62.2365 945.039 61.293 945.202 60.3106C945.367 59.3076 945.914 58.4592 946.842 57.7653C947.441 57.3173 947.969 56.9954 948.427 56.7995C948.876 56.5918 949.334 56.4693 949.801 56.4318Z" fill="black"/>
<path d="M972.062 59.2357C972.353 59.3191 972.553 59.489 972.662 59.7453C972.772 60.0017 972.789 60.305 972.715 60.6554C972.603 61.2136 972.328 61.7292 971.892 62.2021C971.456 62.675 970.9 63.0552 970.226 63.3427C969.146 63.8028 968.173 63.875 967.305 63.5593C966.445 63.2244 965.796 62.5443 965.359 61.5189L963.34 56.7831L962.511 57.1368C962.106 57.3093 961.742 57.3528 961.418 57.2675C961.095 57.1821 960.867 56.9842 960.735 56.6739C960.597 56.3501 960.602 56.0449 960.751 55.7582C960.914 55.4658 961.204 55.2305 961.622 55.0522L962.452 54.6985L961.149 51.6425C960.988 51.2647 960.983 50.9162 961.134 50.5968C961.285 50.2774 961.563 50.0314 961.968 49.8589C962.386 49.6806 962.756 49.6506 963.077 49.7687C963.399 49.8868 963.64 50.1348 963.801 50.5125L965.103 53.5685L967.046 52.7405C967.464 52.5622 967.828 52.5186 968.138 52.6098C968.462 52.6951 968.692 52.8997 968.83 53.2235C968.963 53.5339 968.948 53.8352 968.785 54.1276C968.636 54.4143 968.353 54.6467 967.935 54.825L965.992 55.6531L968.105 60.6115C968.232 60.9083 968.42 61.1071 968.67 61.2077C968.934 61.3026 969.221 61.2839 969.531 61.1517C969.774 61.0482 969.969 60.9253 970.115 60.7831C970.27 60.6216 970.404 60.4129 970.518 60.157C970.725 59.6702 970.977 59.3635 971.274 59.237C971.49 59.145 971.753 59.1446 972.062 59.2357Z" fill="black"/>
<path d="M983.558 59.4512C981.939 59.62 980.81 58.7645 980.172 56.8845L977.955 50.2587C977.907 50.0867 977.881 49.9715 977.874 49.9131C977.836 49.5485 977.932 49.2584 978.16 49.0429C978.401 48.8113 978.755 48.6711 979.222 48.6225C979.689 48.5738 980.079 48.6364 980.392 48.8102C980.705 48.984 980.909 49.2502 981.006 49.6088L982.967 56.748C983.042 57.0498 983.16 57.1923 983.321 57.1755C983.496 57.1573 983.59 57 983.603 56.7037L983.805 50.5777C983.841 49.7924 984.064 49.172 984.474 48.7164C984.882 48.2462 985.443 47.9738 986.158 47.8993C986.873 47.8248 987.479 47.9755 987.975 48.3514C988.47 48.7127 988.816 49.2738 989.013 50.0348L990.474 55.9874C990.548 56.2746 990.673 56.4091 990.848 56.3908C991.009 56.3741 991.095 56.2103 991.106 55.8994L991.553 48.5093C991.573 48.1385 991.718 47.8358 991.989 47.6011C992.259 47.3665 992.628 47.2249 993.095 47.1762C993.561 47.1275 993.93 47.1924 994.199 47.3707C994.481 47.533 994.641 47.7965 994.679 48.1612C994.685 48.2195 994.683 48.3377 994.672 48.5158L993.869 55.4565C993.633 57.4277 992.705 58.4977 991.085 58.6665C990.283 58.7501 989.637 58.5668 989.148 58.1164C988.658 57.6661 988.286 56.9233 988.031 55.8882L986.747 50.5807C986.716 50.4217 986.668 50.3161 986.604 50.2639C986.552 50.1955 986.483 50.1659 986.396 50.175C986.308 50.1841 986.239 50.2282 986.188 50.3072C986.15 50.3701 986.133 50.4826 986.135 50.6446L985.974 56.1027C985.938 57.1682 985.726 57.9717 985.34 58.5133C984.955 59.0549 984.36 59.3676 983.558 59.4512Z" fill="black"/>
<path d="M1006.49 59.8667C1005.6 59.677 1004.84 59.3582 1004.22 58.9101C1003.61 58.4651 1003.17 57.936 1002.89 57.3227C1002.64 56.6981 1002.58 56.0343 1002.73 55.3315C1002.96 54.27 1003.58 53.517 1004.59 53.0724C1005.61 52.6309 1006.87 52.5708 1008.38 52.8919C1009.69 53.1703 1010.67 53.6733 1011.34 54.4009L1011.45 53.8845C1011.6 53.2104 1011.5 52.6496 1011.16 52.2023C1010.82 51.755 1010.26 51.4472 1009.47 51.279C1008.29 51.0282 1007.23 51.0636 1006.27 51.3851C1005.87 51.5095 1005.54 51.5441 1005.28 51.4891C1004.97 51.4218 1004.72 51.2187 1004.54 50.8798C1004.42 50.6454 1004.39 50.4205 1004.43 50.2054C1004.51 49.8468 1004.76 49.571 1005.19 49.378C1005.79 49.1151 1006.5 48.9602 1007.34 48.9133C1008.17 48.8664 1009.03 48.9362 1009.9 49.1228C1011.57 49.4776 1012.79 50.1361 1013.58 51.0982C1014.38 52.049 1014.64 53.1843 1014.36 54.5039L1013.18 60.0336C1013.1 60.4066 1012.91 60.6731 1012.6 60.8332C1012.31 60.9963 1011.95 61.032 1011.52 60.9403C1011.08 60.8455 1010.76 60.6716 1010.55 60.4188C1010.35 60.166 1010.29 59.8531 1010.37 59.4802L1010.42 59.2435C1009.41 60.0015 1008.1 60.2092 1006.49 59.8667ZM1007.58 58.0294C1008.48 58.2221 1009.21 58.2357 1009.77 58.0702C1010.35 57.8935 1010.69 57.5541 1010.8 57.052C1010.9 56.5787 1010.72 56.1435 1010.27 55.7465C1009.81 55.3495 1009.16 55.0592 1008.3 54.8757C1007.52 54.7105 1006.89 54.7183 1006.4 54.8991C1005.93 55.0829 1005.64 55.4259 1005.53 55.9279C1005.42 56.43 1005.55 56.8688 1005.9 57.2444C1006.26 57.6056 1006.82 57.8673 1007.58 58.0294Z" fill="black"/>
<path d="M1020.13 64.1167C1019.72 63.9161 1019.46 63.6556 1019.34 63.335C1019.22 63.0144 1019.25 62.6698 1019.43 62.3013L1023.21 54.6009C1023.4 54.2192 1023.65 53.9814 1023.96 53.8874C1024.28 53.7868 1024.64 53.8335 1025.04 54.0276C1025.43 54.2216 1025.69 54.479 1025.81 54.7995C1025.93 55.1201 1025.9 55.4647 1025.72 55.8333L1025.4 56.4848C1026.07 56.1588 1026.74 55.9903 1027.41 55.9791C1028.11 55.9612 1028.77 56.1075 1029.4 56.418L1029.84 56.6315C1030.26 56.8385 1030.54 57.0891 1030.67 57.3834C1030.82 57.6709 1030.82 57.9792 1030.66 58.3083C1030.5 58.6374 1030.25 58.8358 1029.92 58.9037C1029.62 58.9648 1029.25 58.8919 1028.83 58.6849L1028.16 58.355C1027.28 57.9216 1026.43 57.8585 1025.63 58.1657C1024.84 58.4663 1024.21 59.1036 1023.73 60.0776L1022.02 63.5724C1021.83 63.941 1021.57 64.1723 1021.23 64.2665C1020.89 64.3607 1020.52 64.3107 1020.13 64.1167Z" fill="black"/>
<path d="M1035.97 74.1949C1035.01 73.3718 1034.33 72.4817 1033.91 71.5247C1033.5 70.5676 1033.36 69.6104 1033.51 68.6531C1033.68 67.6942 1034.13 66.7925 1034.85 65.9478C1036.03 64.5809 1037.34 63.8593 1038.78 63.7831C1040.23 63.7165 1041.68 64.3053 1043.12 65.5495C1044.01 66.3151 1044.68 67.1288 1045.11 67.9905C1045.56 68.8617 1045.76 69.7101 1045.71 70.5356C1045.68 71.3595 1045.39 72.0883 1044.84 72.7217C1044.38 73.2552 1043.86 73.518 1043.26 73.5103C1042.68 73.5121 1042.08 73.2451 1041.46 72.7091L1036.44 68.3879C1035.9 69.0102 1035.71 69.6692 1035.87 70.3648C1036.05 71.0588 1036.56 71.7742 1037.42 72.5112C1038.32 73.2864 1039.26 73.7468 1040.23 73.8922C1040.78 73.9762 1041.16 74.1044 1041.36 74.2766C1041.54 74.4393 1041.65 74.6862 1041.68 75.0171C1041.7 75.3687 1041.62 75.6557 1041.43 75.878C1041.2 76.1447 1040.91 76.2601 1040.55 76.2243C1039.78 76.178 1039 75.9813 1038.21 75.6342C1037.43 75.2872 1036.68 74.8074 1035.97 74.1949ZM1042.11 70.6012C1042.3 70.7639 1042.46 70.8454 1042.6 70.8457C1042.74 70.8349 1042.89 70.7462 1043.03 70.5795C1043.36 70.1905 1043.41 69.6934 1043.15 69.0883C1042.91 68.4928 1042.42 67.8744 1041.67 67.2332C1040.93 66.5919 1040.2 66.2403 1039.5 66.1782C1038.81 66.1257 1038.24 66.3606 1037.79 66.8829L1042.11 70.6012Z" fill="black"/>
<path d="M1052.85 97.0941C1052.35 95.938 1052.11 94.8388 1052.16 93.7966C1052.2 92.7545 1052.49 91.834 1053.04 91.0351C1053.61 90.2437 1054.4 89.6252 1055.42 89.1796C1057.08 88.4583 1058.57 88.3755 1059.9 88.9313C1061.23 89.5004 1062.28 90.6589 1063.05 92.4065C1063.52 93.482 1063.76 94.503 1063.78 95.4697C1063.81 96.4498 1063.62 97.3003 1063.22 98.0212C1062.83 98.7498 1062.25 99.2812 1061.49 99.6154C1060.84 99.8969 1060.25 99.9055 1059.72 99.6412C1059.2 99.3904 1058.77 98.8885 1058.44 98.1357L1055.79 92.066C1055.04 92.3944 1054.58 92.9057 1054.42 93.6001C1054.28 94.302 1054.44 95.1706 1054.89 96.2057C1055.36 97.2946 1056.01 98.1167 1056.83 98.6718C1057.28 98.9847 1057.56 99.2622 1057.67 99.5042C1057.77 99.7327 1057.76 100.001 1057.64 100.31C1057.51 100.639 1057.31 100.861 1057.04 100.979C1056.72 101.119 1056.4 101.096 1056.1 100.91C1055.42 100.533 1054.81 100.018 1054.25 99.3644C1053.69 98.7112 1053.23 97.9545 1052.85 97.0941ZM1059.94 96.5199C1060.04 96.7484 1060.15 96.8921 1060.28 96.951C1060.41 97.0041 1060.58 96.9866 1060.78 96.8987C1061.25 96.6934 1061.5 96.2633 1061.54 95.6083C1061.58 94.9667 1061.4 94.1956 1061.01 93.2949C1060.62 92.3942 1060.12 91.7638 1059.51 91.4037C1058.91 91.057 1058.3 91.0215 1057.67 91.2971L1059.94 96.5199Z" fill="black"/>
<path d="M1057.08 110.014C1057.02 109.563 1057.1 109.198 1057.3 108.921C1057.5 108.644 1057.8 108.48 1058.21 108.428L1066.72 107.339C1067.14 107.285 1067.48 107.36 1067.73 107.565C1067.99 107.783 1068.15 108.11 1068.21 108.546C1068.26 108.982 1068.19 109.339 1067.99 109.616C1067.79 109.893 1067.48 110.058 1067.08 110.11L1066.44 110.191C1067.87 111.058 1068.7 112.387 1068.93 114.176C1069.11 115.573 1068.8 116.728 1068.02 117.642C1067.25 118.568 1066.11 119.128 1064.59 119.321L1059.68 119.95C1059.28 120.002 1058.94 119.912 1058.67 119.68C1058.41 119.448 1058.25 119.113 1058.19 118.677C1058.13 118.226 1058.2 117.862 1058.41 117.585C1058.61 117.308 1058.91 117.143 1059.32 117.091L1064.23 116.463C1065.06 116.357 1065.68 116.07 1066.09 115.603C1066.51 115.136 1066.67 114.539 1066.57 113.812C1066.43 112.706 1065.99 111.89 1065.26 111.362C1064.54 110.833 1063.6 110.643 1062.44 110.792L1058.58 111.286C1058.17 111.338 1057.83 111.248 1057.57 111.016C1057.3 110.784 1057.14 110.45 1057.08 110.014Z" fill="black"/>
<path d="M1052.13 132.101C1052.32 130.972 1052.66 129.958 1053.15 129.058C1053.64 128.173 1054.22 127.511 1054.88 127.071C1055.13 126.905 1055.4 126.844 1055.67 126.89C1056.03 126.95 1056.33 127.177 1056.56 127.572C1056.7 127.818 1056.75 128.064 1056.71 128.31C1056.65 128.686 1056.37 129.071 1055.87 129.465C1055.49 129.759 1055.18 130.152 1054.92 130.645C1054.64 131.149 1054.45 131.705 1054.35 132.312C1054.16 133.441 1054.36 134.373 1054.93 135.108C1055.51 135.843 1056.4 136.295 1057.61 136.465L1058.48 136.587C1057.98 136 1057.65 135.35 1057.49 134.639C1057.32 133.942 1057.32 133.116 1057.47 132.161C1057.77 130.382 1058.48 129.073 1059.62 128.235C1060.77 127.4 1062.21 127.126 1063.95 127.414C1065.68 127.702 1066.95 128.433 1067.76 129.606C1068.57 130.797 1068.82 132.304 1068.52 134.127C1068.4 134.879 1068.13 135.577 1067.71 136.222C1067.29 136.866 1066.76 137.417 1066.12 137.876L1066.55 137.948C1066.96 138.015 1067.25 138.198 1067.44 138.497C1067.63 138.796 1067.69 139.162 1067.62 139.596C1067.54 140.03 1067.37 140.351 1067.1 140.559C1066.84 140.783 1066.5 140.86 1066.08 140.791L1057.14 139.308C1055.98 139.117 1054.99 138.692 1054.16 138.034C1053.33 137.391 1052.73 136.556 1052.37 135.529C1052 134.517 1051.92 133.374 1052.13 132.101ZM1059.64 133.1C1059.45 134.228 1059.59 135.159 1060.07 135.892C1060.54 136.624 1061.29 137.076 1062.32 137.246C1063.35 137.416 1064.2 137.231 1064.89 136.69C1065.57 136.15 1066.01 135.315 1066.19 134.187C1066.37 133.13 1066.22 132.258 1065.73 131.568C1065.25 130.879 1064.5 130.449 1063.47 130.279C1062.45 130.109 1061.59 130.272 1060.92 130.77C1060.24 131.267 1059.81 132.044 1059.64 133.1Z" fill="black"/>
<path d="M1064.91 152.012C1065.12 151.512 1065.42 151.162 1065.82 150.964C1066.23 150.785 1066.66 150.789 1067.11 150.976C1067.55 151.163 1067.85 151.462 1067.99 151.872C1068.15 152.302 1068.12 152.768 1067.91 153.268C1067.7 153.769 1067.39 154.116 1066.98 154.308C1066.57 154.52 1066.14 154.532 1065.7 154.345C1065.25 154.159 1064.95 153.844 1064.8 153.4C1064.66 152.976 1064.7 152.513 1064.91 152.012ZM1053.29 147.178C1053.46 146.759 1053.71 146.479 1054.02 146.34C1054.33 146.2 1054.68 146.21 1055.06 146.368L1062.97 149.678C1063.35 149.836 1063.6 150.076 1063.72 150.396C1063.84 150.717 1063.82 151.087 1063.64 151.506C1063.47 151.912 1063.23 152.192 1062.91 152.345C1062.59 152.498 1062.24 152.495 1061.86 152.337L1053.95 149.027C1053.57 148.869 1053.32 148.622 1053.21 148.288C1053.09 147.954 1053.12 147.584 1053.29 147.178Z" fill="black"/>
<path d="M1048.91 156.125C1049.18 155.755 1049.48 155.537 1049.81 155.471C1050.15 155.404 1050.48 155.49 1050.82 155.729L1057.8 160.716C1058.14 160.964 1058.34 161.247 1058.38 161.565C1058.43 161.905 1058.32 162.253 1058.07 162.611C1057.81 162.969 1057.51 163.182 1057.18 163.248C1056.84 163.315 1056.51 163.229 1056.17 162.99L1055.65 162.619C1056.11 164.225 1055.82 165.762 1054.77 167.23C1053.95 168.376 1052.94 169.017 1051.74 169.153C1050.55 169.31 1049.33 168.945 1048.09 168.058L1044.06 165.181C1043.73 164.942 1043.54 164.647 1043.51 164.296C1043.47 163.945 1043.58 163.59 1043.83 163.232C1044.1 162.862 1044.4 162.644 1044.73 162.577C1045.07 162.511 1045.41 162.597 1045.74 162.836L1049.77 165.713C1050.45 166.199 1051.1 166.411 1051.72 166.35C1052.34 166.289 1052.86 165.96 1053.29 165.363C1053.94 164.456 1054.17 163.56 1053.99 162.675C1053.83 161.799 1053.26 161.02 1052.31 160.338L1049.14 158.074C1048.81 157.835 1048.62 157.54 1048.58 157.189C1048.55 156.838 1048.66 156.483 1048.91 156.125Z" fill="black"/>
<path d="M1033.74 172.942C1034.73 172.162 1035.74 171.661 1036.76 171.438C1037.78 171.215 1038.74 171.268 1039.65 171.596C1040.56 171.945 1041.36 172.558 1042.05 173.434C1043.16 174.852 1043.62 176.275 1043.42 177.702C1043.2 179.139 1042.35 180.447 1040.85 181.625C1039.93 182.351 1039 182.846 1038.07 183.111C1037.13 183.385 1036.26 183.416 1035.46 183.206C1034.66 183.016 1034 182.592 1033.48 181.935C1033.05 181.382 1032.89 180.815 1033.01 180.234C1033.12 179.662 1033.5 179.122 1034.14 178.615L1039.35 174.521C1038.84 173.876 1038.23 173.562 1037.52 173.582C1036.8 173.622 1036 173.991 1035.11 174.689C1034.18 175.423 1033.55 176.256 1033.22 177.188C1033.03 177.709 1032.83 178.051 1032.62 178.214C1032.43 178.368 1032.17 178.425 1031.84 178.386C1031.49 178.344 1031.22 178.208 1031.04 177.977C1030.82 177.701 1030.76 177.391 1030.87 177.048C1031.06 176.299 1031.41 175.572 1031.9 174.868C1032.39 174.164 1033 173.522 1033.74 172.942ZM1036.09 179.662C1035.89 179.816 1035.78 179.959 1035.75 180.092C1035.74 180.236 1035.8 180.395 1035.93 180.568C1036.25 180.971 1036.73 181.107 1037.37 180.975C1038 180.852 1038.7 180.486 1039.48 179.879C1040.25 179.271 1040.73 178.629 1040.93 177.953C1041.11 177.286 1040.99 176.681 1040.57 176.139L1036.09 179.662Z" fill="black"/>
<path d="M1018.06 182.005C1019.23 181.534 1020.34 181.335 1021.38 181.406C1022.42 181.478 1023.33 181.799 1024.11 182.369C1024.89 182.959 1025.48 183.771 1025.9 184.805C1026.57 186.479 1026.61 187.972 1026.02 189.286C1025.41 190.606 1024.22 191.621 1022.45 192.332C1021.36 192.77 1020.34 192.986 1019.37 192.979C1018.39 192.979 1017.54 192.765 1016.84 192.339C1016.12 191.932 1015.6 191.34 1015.29 190.564C1015.03 189.911 1015.04 189.323 1015.32 188.8C1015.58 188.282 1016.1 187.869 1016.86 187.563L1023 185.092C1022.7 184.33 1022.2 183.859 1021.51 183.677C1020.81 183.515 1019.94 183.645 1018.89 184.066C1017.79 184.509 1016.95 185.132 1016.37 185.934C1016.04 186.381 1015.76 186.654 1015.51 186.752C1015.28 186.845 1015.01 186.827 1014.71 186.697C1014.38 186.558 1014.17 186.353 1014.06 186.081C1013.93 185.754 1013.96 185.441 1014.15 185.141C1014.55 184.476 1015.08 183.874 1015.75 183.337C1016.42 182.799 1017.19 182.355 1018.06 182.005ZM1018.43 189.112C1018.2 189.205 1018.05 189.312 1017.99 189.432C1017.93 189.565 1017.95 189.734 1018.03 189.938C1018.22 190.415 1018.64 190.679 1019.3 190.733C1019.94 190.791 1020.71 190.637 1021.62 190.271C1022.53 189.904 1023.18 189.424 1023.56 188.829C1023.92 188.24 1023.97 187.626 1023.72 186.986L1018.43 189.112Z" fill="black"/>
<path d="M1004.93 185.766C1005.38 185.707 1005.74 185.779 1006.02 185.98C1006.3 186.181 1006.46 186.485 1006.51 186.892L1007.61 195.402C1007.67 195.823 1007.59 196.158 1007.39 196.407C1007.17 196.671 1006.84 196.832 1006.41 196.888C1005.97 196.944 1005.61 196.872 1005.33 196.671C1005.06 196.47 1004.89 196.166 1004.84 195.759L1004.75 195.039C1004.37 195.679 1003.9 196.19 1003.35 196.572C1002.78 196.971 1002.14 197.215 1001.45 197.305L1000.97 197.367C1000.5 197.427 1000.13 197.371 999.857 197.2C999.571 197.044 999.405 196.785 999.358 196.421C999.311 196.057 999.405 195.757 999.641 195.519C999.864 195.298 1000.21 195.158 1000.67 195.098L1001.42 195.002C1002.39 194.877 1003.13 194.464 1003.63 193.763C1004.12 193.079 1004.29 192.199 1004.15 191.122L1003.66 187.26C1003.6 186.853 1003.69 186.516 1003.92 186.25C1004.16 185.983 1004.49 185.822 1004.93 185.766Z" fill="black"/>
</svg>
