<svg width="36" height="36" viewBox="0 0 36 36" fill="none" xmlns="http://www.w3.org/2000/svg">
<path d="M4.5 7.5V6.375C4.20163 6.375 3.91548 6.49353 3.7045 6.7045C3.49353 6.91548 3.375 7.20163 3.375 7.5H4.5ZM31.5 7.5H32.625C32.625 7.20163 32.5065 6.91548 32.2955 6.7045C32.0845 6.49353 31.7984 6.375 31.5 6.375V7.5ZM4.5 8.625H31.5V6.375H4.5V8.625ZM30.375 7.5V25.5H32.625V7.5H30.375ZM28.5 27.375H7.5V29.625H28.5V27.375ZM5.625 25.5V7.5H3.375V25.5H5.625ZM7.5 27.375C6.465 27.375 5.625 26.535 5.625 25.5H3.375C3.375 26.594 3.8096 27.6432 4.58318 28.4168C5.35677 29.1904 6.40598 29.625 7.5 29.625V27.375ZM30.375 25.5C30.375 26.535 29.535 27.375 28.5 27.375V29.625C29.594 29.625 30.6432 29.1904 31.4168 28.4168C32.1904 27.6432 32.625 26.594 32.625 25.5H30.375Z" fill="#F24E1E"/>
<path d="M4.5 7.5L18 21L31.5 7.5" fill="#F24E1E"/>
<path d="M4.5 7.5L18 21L31.5 7.5" stroke="#F24E1E" stroke-width="1.5" stroke-linecap="round" stroke-linejoin="round"/>
</svg>
